<svg width="2132" height="1032" viewBox="0 0 2132 1032" fill="none" xmlns="http://www.w3.org/2000/svg" xmlns:xlink="http://www.w3.org/1999/xlink">
<rect x="2" y="2" width="2127.33" height="1027.56" fill="#D9D9D9" stroke="#121212" stroke-width="4"/>
<rect x="118.652" y="89.8657" width="1181.03" height="751.987" fill="#D9D9D9" stroke="black"/>
<path d="M1825.51 145.973V841.854H1300.68V145.973H1825.51Z" fill="#ABA08E" stroke="black"/>
<rect x="119.864" y="522.235" width="5.34229" height="140.761" fill="#D9D9D9" stroke="black"/>
<rect x="118.652" y="89.8657" width="114.85" height="82.48" fill="#4B7AA8" stroke="black"/>
<rect x="118.652" y="173.346" width="114.85" height="82.48" fill="#4B7AA8" stroke="black"/>
<rect x="118.652" y="256.826" width="114.85" height="82.48" fill="#4B7AA8" stroke="black"/>
<rect x="118.652" y="340.306" width="114.85" height="82.48" fill="#4B7AA8" stroke="black"/>
<rect x="118.652" y="423.786" width="114.85" height="82.48" fill="#4B7AA8" stroke="black"/>
<rect x="1300.68" y="145.973" width="768.922" height="695.88" fill="#D9D9D9" stroke="black"/>
<rect x="3.5" y="941.696" width="2124.33" height="86.3655" fill="#323232"/>
<rect x="3.5" y="941.696" width="2124.33" height="86.3655" fill="url(#pattern0_126_644)"/>
<rect x="3.5" y="941.696" width="2124.33" height="86.3655" stroke="black"/>
<rect x="3.75732" y="3.19629" width="2124.33" height="86.3655" fill="#323232"/>
<rect x="3.75732" y="3.19629" width="2124.33" height="86.3655" fill="url(#pattern1_126_644)"/>
<rect x="3.75732" y="3.19629" width="2124.33" height="86.3655" stroke="black"/>
<rect x="123.035" y="667.204" width="128.07" height="81.8667" fill="#2C85B1" stroke="black"/>
<rect x="252.104" y="667.204" width="82.9569" height="81.8667" fill="#2C85B1" stroke="black"/>
<rect x="336.061" y="667.204" width="82.9569" height="81.8667" fill="#2C85B1" stroke="black"/>
<rect x="420.018" y="667.204" width="82.9569" height="81.8667" fill="#2C85B1" stroke="black"/>
<rect x="503.975" y="667.204" width="82.9569" height="81.8667" fill="#2C85B1" stroke="black"/>
<rect x="587.932" y="667.204" width="82.9569" height="81.8667" fill="#2C85B1" stroke="black"/>
<rect x="671.889" y="667.204" width="82.9569" height="81.8667" fill="#2C85B1" stroke="black"/>
<rect x="755.846" y="667.204" width="82.9569" height="81.8667" fill="#2C85B1" stroke="black"/>
<rect x="839.803" y="667.204" width="82.9569" height="81.8667" fill="#2C85B1" stroke="black"/>
<rect x="923.76" y="667.204" width="82.9569" height="81.8667" fill="#2C85B1" stroke="black"/>
<rect x="1007.72" y="667.204" width="82.9569" height="81.8667" fill="#2C85B1" stroke="black"/>
<rect x="1091.67" y="667.204" width="82.9569" height="81.8667" fill="#2C85B1" stroke="black"/>
<rect x="1311.97" y="880.914" width="23.9177" height="52.6421" fill="#D9D9D9" stroke="black"/>
<circle cx="1342.02" cy="891.369" r="6.12659" fill="#D9D9D9" stroke="black"/>
<circle cx="1305.85" cy="891.369" r="6.12659" fill="#D9D9D9" stroke="black"/>
<circle cx="1342.02" cy="921.577" r="6.12659" fill="#D9D9D9" stroke="black"/>
<circle cx="1305.85" cy="921.577" r="6.12659" fill="#D9D9D9" stroke="black"/>
<rect x="1384.4" y="880.914" width="23.9177" height="52.6421" fill="#D9D9D9" stroke="black"/>
<circle cx="1414.44" cy="891.369" r="6.12659" fill="#D9D9D9" stroke="black"/>
<circle cx="1378.27" cy="891.369" r="6.12659" fill="#D9D9D9" stroke="black"/>
<circle cx="1414.44" cy="921.577" r="6.12659" fill="#D9D9D9" stroke="black"/>
<circle cx="1378.27" cy="921.577" r="6.12659" fill="#D9D9D9" stroke="black"/>
<rect x="1456.82" y="880.914" width="23.9177" height="52.6421" fill="#D9D9D9" stroke="black"/>
<circle cx="1486.87" cy="891.369" r="6.12659" fill="#D9D9D9" stroke="black"/>
<circle cx="1450.7" cy="891.369" r="6.12659" fill="#D9D9D9" stroke="black"/>
<circle cx="1486.87" cy="921.577" r="6.12659" fill="#D9D9D9" stroke="black"/>
<circle cx="1450.7" cy="921.577" r="6.12659" fill="#D9D9D9" stroke="black"/>
<rect x="1529.25" y="880.914" width="23.9177" height="52.6421" fill="#D9D9D9" stroke="black"/>
<circle cx="1559.29" cy="891.369" r="6.12659" fill="#D9D9D9" stroke="black"/>
<circle cx="1523.12" cy="891.369" r="6.12659" fill="#D9D9D9" stroke="black"/>
<circle cx="1559.29" cy="921.577" r="6.12659" fill="#D9D9D9" stroke="black"/>
<circle cx="1523.12" cy="921.577" r="6.12659" fill="#D9D9D9" stroke="black"/>
<rect x="1601.67" y="880.914" width="23.9177" height="52.6421" fill="#D9D9D9" stroke="black"/>
<circle cx="1631.71" cy="891.369" r="6.12659" fill="#D9D9D9" stroke="black"/>
<circle cx="1595.54" cy="891.369" r="6.12659" fill="#D9D9D9" stroke="black"/>
<circle cx="1631.71" cy="921.577" r="6.12659" fill="#D9D9D9" stroke="black"/>
<circle cx="1595.54" cy="921.577" r="6.12659" fill="#D9D9D9" stroke="black"/>
<rect x="1674.09" y="880.914" width="23.9177" height="52.6421" fill="#D9D9D9" stroke="black"/>
<circle cx="1704.14" cy="891.369" r="6.12659" fill="#D9D9D9" stroke="black"/>
<circle cx="1667.97" cy="891.369" r="6.12659" fill="#D9D9D9" stroke="black"/>
<circle cx="1704.14" cy="921.577" r="6.12659" fill="#D9D9D9" stroke="black"/>
<circle cx="1667.97" cy="921.577" r="6.12659" fill="#D9D9D9" stroke="black"/>
<rect x="1746.52" y="880.914" width="23.9177" height="52.6421" fill="#D9D9D9" stroke="black"/>
<circle cx="1776.56" cy="891.369" r="6.12659" fill="#D9D9D9" stroke="black"/>
<circle cx="1740.39" cy="891.369" r="6.12659" fill="#D9D9D9" stroke="black"/>
<circle cx="1776.56" cy="921.577" r="6.12659" fill="#D9D9D9" stroke="black"/>
<circle cx="1740.39" cy="921.577" r="6.12659" fill="#D9D9D9" stroke="black"/>
<rect x="66.4404" y="110.815" width="23.9177" height="52.6421" transform="rotate(90 66.4404 110.815)" fill="#D9D9D9" stroke="black"/>
<circle cx="55.9852" cy="140.859" r="6.12659" transform="rotate(90 55.9852 140.859)" fill="#D9D9D9" stroke="black"/>
<circle cx="55.9852" cy="104.689" r="6.12659" transform="rotate(90 55.9852 104.689)" fill="#D9D9D9" stroke="black"/>
<circle cx="25.7772" cy="140.859" r="6.12659" transform="rotate(90 25.7772 140.859)" fill="#D9D9D9" stroke="black"/>
<circle cx="25.7772" cy="104.689" r="6.12659" transform="rotate(90 25.7772 104.689)" fill="#D9D9D9" stroke="black"/>
<rect x="66.4404" y="183.239" width="23.9177" height="52.6421" transform="rotate(90 66.4404 183.239)" fill="#D9D9D9" stroke="black"/>
<circle cx="55.9852" cy="213.283" r="6.12659" transform="rotate(90 55.9852 213.283)" fill="#D9D9D9" stroke="black"/>
<circle cx="55.9852" cy="177.112" r="6.12659" transform="rotate(90 55.9852 177.112)" fill="#D9D9D9" stroke="black"/>
<circle cx="25.7772" cy="213.283" r="6.12659" transform="rotate(90 25.7772 213.283)" fill="#D9D9D9" stroke="black"/>
<circle cx="25.7772" cy="177.112" r="6.12659" transform="rotate(90 25.7772 177.112)" fill="#D9D9D9" stroke="black"/>
<rect x="66.4404" y="255.664" width="23.9177" height="52.6421" transform="rotate(90 66.4404 255.664)" fill="#D9D9D9" stroke="black"/>
<circle cx="55.9852" cy="285.708" r="6.12659" transform="rotate(90 55.9852 285.708)" fill="#D9D9D9" stroke="black"/>
<circle cx="55.9852" cy="249.537" r="6.12659" transform="rotate(90 55.9852 249.537)" fill="#D9D9D9" stroke="black"/>
<circle cx="25.7772" cy="285.708" r="6.12659" transform="rotate(90 25.7772 285.708)" fill="#D9D9D9" stroke="black"/>
<circle cx="25.7772" cy="249.537" r="6.12659" transform="rotate(90 25.7772 249.537)" fill="#D9D9D9" stroke="black"/>
<rect x="66.4404" y="328.087" width="23.9177" height="52.6421" transform="rotate(90 66.4404 328.087)" fill="#D9D9D9" stroke="black"/>
<circle cx="55.9852" cy="358.132" r="6.12659" transform="rotate(90 55.9852 358.132)" fill="#D9D9D9" stroke="black"/>
<circle cx="55.9852" cy="321.961" r="6.12659" transform="rotate(90 55.9852 321.961)" fill="#D9D9D9" stroke="black"/>
<circle cx="25.7772" cy="358.132" r="6.12659" transform="rotate(90 25.7772 358.132)" fill="#D9D9D9" stroke="black"/>
<circle cx="25.7772" cy="321.961" r="6.12659" transform="rotate(90 25.7772 321.961)" fill="#D9D9D9" stroke="black"/>
<rect x="66.4404" y="400.511" width="23.9177" height="52.6421" transform="rotate(90 66.4404 400.511)" fill="#D9D9D9" stroke="black"/>
<circle cx="55.9852" cy="430.556" r="6.12659" transform="rotate(90 55.9852 430.556)" fill="#D9D9D9" stroke="black"/>
<circle cx="55.9852" cy="394.385" r="6.12659" transform="rotate(90 55.9852 394.385)" fill="#D9D9D9" stroke="black"/>
<circle cx="25.7772" cy="430.556" r="6.12659" transform="rotate(90 25.7772 430.556)" fill="#D9D9D9" stroke="black"/>
<circle cx="25.7772" cy="394.385" r="6.12659" transform="rotate(90 25.7772 394.385)" fill="#D9D9D9" stroke="black"/>
<rect x="66.4404" y="472.935" width="23.9177" height="52.6421" transform="rotate(90 66.4404 472.935)" fill="#D9D9D9" stroke="black"/>
<circle cx="55.9852" cy="502.98" r="6.12659" transform="rotate(90 55.9852 502.98)" fill="#D9D9D9" stroke="black"/>
<circle cx="55.9852" cy="466.809" r="6.12659" transform="rotate(90 55.9852 466.809)" fill="#D9D9D9" stroke="black"/>
<circle cx="25.7772" cy="502.98" r="6.12659" transform="rotate(90 25.7772 502.98)" fill="#D9D9D9" stroke="black"/>
<circle cx="25.7772" cy="466.809" r="6.12659" transform="rotate(90 25.7772 466.809)" fill="#D9D9D9" stroke="black"/>
<rect x="129.974" y="880.906" width="23.9177" height="52.6421" fill="#D9D9D9" stroke="black"/>
<circle cx="160.019" cy="891.361" r="6.12659" fill="#D9D9D9" stroke="black"/>
<circle cx="123.848" cy="891.361" r="6.12659" fill="#D9D9D9" stroke="black"/>
<circle cx="160.019" cy="921.569" r="6.12659" fill="#D9D9D9" stroke="black"/>
<circle cx="123.848" cy="921.569" r="6.12659" fill="#D9D9D9" stroke="black"/>
<rect x="202.398" y="880.906" width="23.9177" height="52.6421" fill="#D9D9D9" stroke="black"/>
<circle cx="232.443" cy="891.361" r="6.12659" fill="#D9D9D9" stroke="black"/>
<circle cx="196.272" cy="891.361" r="6.12659" fill="#D9D9D9" stroke="black"/>
<circle cx="232.443" cy="921.569" r="6.12659" fill="#D9D9D9" stroke="black"/>
<circle cx="196.272" cy="921.569" r="6.12659" fill="#D9D9D9" stroke="black"/>
<rect x="274.823" y="880.906" width="23.9177" height="52.6421" fill="#D9D9D9" stroke="black"/>
<circle cx="304.867" cy="891.361" r="6.12659" fill="#D9D9D9" stroke="black"/>
<circle cx="268.696" cy="891.361" r="6.12659" fill="#D9D9D9" stroke="black"/>
<circle cx="304.867" cy="921.569" r="6.12659" fill="#D9D9D9" stroke="black"/>
<circle cx="268.696" cy="921.569" r="6.12659" fill="#D9D9D9" stroke="black"/>
<rect x="347.247" y="880.906" width="23.9177" height="52.6421" fill="#D9D9D9" stroke="black"/>
<circle cx="377.291" cy="891.361" r="6.12659" fill="#D9D9D9" stroke="black"/>
<circle cx="341.12" cy="891.361" r="6.12659" fill="#D9D9D9" stroke="black"/>
<circle cx="377.291" cy="921.569" r="6.12659" fill="#D9D9D9" stroke="black"/>
<circle cx="341.12" cy="921.569" r="6.12659" fill="#D9D9D9" stroke="black"/>
<rect x="419.67" y="880.906" width="23.9177" height="52.6421" fill="#D9D9D9" stroke="black"/>
<circle cx="449.715" cy="891.361" r="6.12659" fill="#D9D9D9" stroke="black"/>
<circle cx="413.544" cy="891.361" r="6.12659" fill="#D9D9D9" stroke="black"/>
<circle cx="449.715" cy="921.569" r="6.12659" fill="#D9D9D9" stroke="black"/>
<circle cx="413.544" cy="921.569" r="6.12659" fill="#D9D9D9" stroke="black"/>
<rect x="492.094" y="880.906" width="23.9177" height="52.6421" fill="#D9D9D9" stroke="black"/>
<circle cx="522.139" cy="891.361" r="6.12659" fill="#D9D9D9" stroke="black"/>
<circle cx="485.968" cy="891.361" r="6.12659" fill="#D9D9D9" stroke="black"/>
<circle cx="522.139" cy="921.569" r="6.12659" fill="#D9D9D9" stroke="black"/>
<circle cx="485.968" cy="921.569" r="6.12659" fill="#D9D9D9" stroke="black"/>
<rect x="564.519" y="880.906" width="23.9177" height="52.6421" fill="#D9D9D9" stroke="black"/>
<circle cx="594.563" cy="891.361" r="6.12659" fill="#D9D9D9" stroke="black"/>
<circle cx="558.392" cy="891.361" r="6.12659" fill="#D9D9D9" stroke="black"/>
<circle cx="594.563" cy="921.569" r="6.12659" fill="#D9D9D9" stroke="black"/>
<circle cx="558.392" cy="921.569" r="6.12659" fill="#D9D9D9" stroke="black"/>
<rect x="636.943" y="880.906" width="23.9177" height="52.6421" fill="#D9D9D9" stroke="black"/>
<circle cx="666.987" cy="891.361" r="6.12659" fill="#D9D9D9" stroke="black"/>
<circle cx="630.817" cy="891.361" r="6.12659" fill="#D9D9D9" stroke="black"/>
<circle cx="666.987" cy="921.569" r="6.12659" fill="#D9D9D9" stroke="black"/>
<circle cx="630.817" cy="921.569" r="6.12659" fill="#D9D9D9" stroke="black"/>
<rect x="709.367" y="880.906" width="23.9177" height="52.6421" fill="#D9D9D9" stroke="black"/>
<circle cx="739.411" cy="891.361" r="6.12659" fill="#D9D9D9" stroke="black"/>
<circle cx="703.24" cy="891.361" r="6.12659" fill="#D9D9D9" stroke="black"/>
<circle cx="739.411" cy="921.569" r="6.12659" fill="#D9D9D9" stroke="black"/>
<circle cx="703.24" cy="921.569" r="6.12659" fill="#D9D9D9" stroke="black"/>
<rect x="781.791" y="880.906" width="23.9177" height="52.6421" fill="#D9D9D9" stroke="black"/>
<circle cx="811.835" cy="891.361" r="6.12659" fill="#D9D9D9" stroke="black"/>
<circle cx="775.664" cy="891.361" r="6.12659" fill="#D9D9D9" stroke="black"/>
<circle cx="811.835" cy="921.569" r="6.12659" fill="#D9D9D9" stroke="black"/>
<circle cx="775.664" cy="921.569" r="6.12659" fill="#D9D9D9" stroke="black"/>
<rect x="854.215" y="880.906" width="23.9177" height="52.6421" fill="#D9D9D9" stroke="black"/>
<circle cx="884.259" cy="891.361" r="6.12659" fill="#D9D9D9" stroke="black"/>
<circle cx="848.089" cy="891.361" r="6.12659" fill="#D9D9D9" stroke="black"/>
<circle cx="884.259" cy="921.569" r="6.12659" fill="#D9D9D9" stroke="black"/>
<circle cx="848.089" cy="921.569" r="6.12659" fill="#D9D9D9" stroke="black"/>
<rect x="926.639" y="880.906" width="23.9177" height="52.6421" fill="#D9D9D9" stroke="black"/>
<circle cx="956.683" cy="891.361" r="6.12659" fill="#D9D9D9" stroke="black"/>
<circle cx="920.513" cy="891.361" r="6.12659" fill="#D9D9D9" stroke="black"/>
<circle cx="956.683" cy="921.569" r="6.12659" fill="#D9D9D9" stroke="black"/>
<circle cx="920.513" cy="921.569" r="6.12659" fill="#D9D9D9" stroke="black"/>
<rect x="999.063" y="880.906" width="23.9177" height="52.6421" fill="#D9D9D9" stroke="black"/>
<circle cx="1029.11" cy="891.361" r="6.12659" fill="#D9D9D9" stroke="black"/>
<circle cx="992.937" cy="891.361" r="6.12659" fill="#D9D9D9" stroke="black"/>
<circle cx="1029.11" cy="921.569" r="6.12659" fill="#D9D9D9" stroke="black"/>
<circle cx="992.937" cy="921.569" r="6.12659" fill="#D9D9D9" stroke="black"/>
<rect x="1071.49" y="880.906" width="23.9177" height="52.6421" fill="#D9D9D9" stroke="black"/>
<circle cx="1101.53" cy="891.361" r="6.12659" fill="#D9D9D9" stroke="black"/>
<circle cx="1065.36" cy="891.361" r="6.12659" fill="#D9D9D9" stroke="black"/>
<circle cx="1101.53" cy="921.569" r="6.12659" fill="#D9D9D9" stroke="black"/>
<circle cx="1065.36" cy="921.569" r="6.12659" fill="#D9D9D9" stroke="black"/>
<rect x="1143.91" y="880.906" width="23.9177" height="52.6421" fill="#D9D9D9" stroke="black"/>
<circle cx="1173.96" cy="891.361" r="6.12659" fill="#D9D9D9" stroke="black"/>
<circle cx="1137.78" cy="891.361" r="6.12659" fill="#D9D9D9" stroke="black"/>
<circle cx="1173.96" cy="921.569" r="6.12659" fill="#D9D9D9" stroke="black"/>
<circle cx="1137.78" cy="921.569" r="6.12659" fill="#D9D9D9" stroke="black"/>
<rect x="123.104" y="756.771" width="128.07" height="81.8667" fill="#589A67" stroke="black"/>
<rect x="252.173" y="756.771" width="82.9569" height="81.8667" fill="#589A67" stroke="black"/>
<rect x="336.13" y="756.771" width="82.9569" height="81.8667" fill="#589A67" stroke="black"/>
<rect x="420.087" y="756.771" width="82.9569" height="81.8667" fill="#589A67" stroke="black"/>
<rect x="504.044" y="756.771" width="82.9569" height="81.8667" fill="#589A67" stroke="black"/>
<rect x="588.001" y="756.771" width="82.9569" height="81.8667" fill="#589A67" stroke="black"/>
<rect x="671.958" y="756.771" width="82.9569" height="81.8667" fill="#589A67" stroke="black"/>
<rect x="755.915" y="756.771" width="82.9569" height="81.8667" fill="#589A67" stroke="black"/>
<rect x="839.872" y="756.771" width="82.9569" height="81.8667" fill="#589A67" stroke="black"/>
<rect x="923.829" y="756.771" width="82.9569" height="81.8667" fill="#589A67" stroke="black"/>
<rect x="1007.79" y="756.771" width="82.9569" height="81.8667" fill="#589A67" stroke="black"/>
<rect x="1091.74" y="756.771" width="82.9569" height="81.8667" fill="#589A67" stroke="black"/>
<rect width="453.229" height="48.5192" transform="translate(294.191 442.048)" fill="white"/>
<rect x="294.691" y="444.292" width="55.6537" height="44.0322" fill="#25C54E" stroke="black"/>
<rect x="351.345" y="444.292" width="55.6537" height="44.0322" fill="#25C54E" stroke="black"/>
<rect x="407.999" y="444.292" width="55.6537" height="44.0322" fill="#25C54E" stroke="black"/>
<rect x="464.652" y="444.292" width="55.6537" height="44.0322" fill="#25C54E" stroke="black"/>
<rect x="521.306" y="444.292" width="55.6537" height="44.0322" fill="#25C54E" stroke="black"/>
<rect x="577.96" y="444.292" width="55.6537" height="44.0322" fill="#25C54E" stroke="black"/>
<rect x="634.614" y="444.292" width="55.6537" height="44.0322" fill="#25C54E" stroke="black"/>
<rect x="691.267" y="444.292" width="55.6537" height="44.0322" fill="#25C54E" stroke="black"/>
<rect width="453.229" height="48.5192" transform="translate(294.191 490.567)" fill="white"/>
<rect x="294.691" y="492.811" width="55.6537" height="44.0322" fill="#25C54E" stroke="black"/>
<rect x="351.345" y="492.811" width="55.6537" height="44.0322" fill="#25C54E" stroke="black"/>
<rect x="407.999" y="492.811" width="55.6537" height="44.0322" fill="#25C54E" stroke="black"/>
<rect x="464.652" y="492.811" width="55.6537" height="44.0322" fill="#25C54E" stroke="black"/>
<rect x="521.306" y="492.811" width="55.6537" height="44.0322" fill="#25C54E" stroke="black"/>
<rect x="577.96" y="492.811" width="55.6537" height="44.0322" fill="#25C54E" stroke="black"/>
<rect x="634.614" y="492.811" width="55.6537" height="44.0322" fill="#25C54E" stroke="black"/>
<rect x="691.267" y="492.811" width="55.6537" height="44.0322" fill="#25C54E" stroke="black"/>
<rect x="294.691" y="296.004" width="55.6537" height="44.0322" fill="#25C54E" stroke="black"/>
<rect x="351.345" y="296.004" width="55.6537" height="44.0322" fill="#25C54E" stroke="black"/>
<rect x="407.999" y="296.004" width="55.6537" height="44.0322" fill="#25C54E" stroke="black"/>
<rect x="464.652" y="296.004" width="55.6537" height="44.0322" fill="#25C54E" stroke="black"/>
<rect x="521.306" y="296.004" width="55.6537" height="44.0322" fill="#25C54E" stroke="black"/>
<rect x="577.96" y="296.004" width="55.6537" height="44.0322" fill="#25C54E" stroke="black"/>
<rect x="634.614" y="296.004" width="55.6537" height="44.0322" fill="#25C54E" stroke="black"/>
<rect x="691.267" y="296.004" width="55.6537" height="44.0322" fill="#25C54E" stroke="black"/>
<rect x="294.691" y="344.523" width="55.6537" height="44.0322" fill="#25C54E" stroke="black"/>
<rect x="351.345" y="344.523" width="55.6537" height="44.0322" fill="#25C54E" stroke="black"/>
<rect x="407.999" y="344.523" width="55.6537" height="44.0322" fill="#25C54E" stroke="black"/>
<rect x="464.652" y="344.523" width="55.6537" height="44.0322" fill="#25C54E" stroke="black"/>
<rect x="521.306" y="344.523" width="55.6537" height="44.0322" fill="#25C54E" stroke="black"/>
<rect x="577.96" y="344.523" width="55.6537" height="44.0322" fill="#25C54E" stroke="black"/>
<rect x="634.614" y="344.523" width="55.6537" height="44.0322" fill="#25C54E" stroke="black"/>
<rect x="691.267" y="344.523" width="55.6537" height="44.0322" fill="#25C54E" stroke="black"/>
<rect x="294.691" y="147.716" width="55.6537" height="44.0322" fill="#DED24D" stroke="black"/>
<rect x="351.345" y="147.716" width="55.6537" height="44.0322" fill="#FF4F3B" stroke="black"/>
<rect x="407.999" y="147.716" width="55.6537" height="44.0322" fill="#FF4F3B" stroke="black"/>
<rect x="464.652" y="147.716" width="55.6537" height="44.0322" fill="#FF4F3B" stroke="black"/>
<rect x="521.306" y="147.716" width="55.6537" height="44.0322" fill="#FF4F3B" stroke="black"/>
<rect x="577.96" y="147.716" width="55.6537" height="44.0322" fill="#FF4F3B" stroke="black"/>
<rect x="634.614" y="147.716" width="55.6537" height="44.0322" fill="#FF4F3B" stroke="black"/>
<rect x="691.267" y="147.716" width="55.6537" height="44.0322" fill="#FF4F3B" stroke="black"/>
<rect x="294.691" y="196.235" width="55.6537" height="44.0322" fill="#DED24D" stroke="black"/>
<rect x="351.345" y="196.235" width="55.6537" height="44.0322" fill="#DED24D" stroke="black"/>
<rect x="407.999" y="196.235" width="55.6537" height="44.0322" fill="#DED24D" stroke="black"/>
<rect x="464.652" y="196.235" width="55.6537" height="44.0322" fill="#DED24D" stroke="black"/>
<rect x="521.306" y="196.235" width="55.6537" height="44.0322" fill="#DED24D" stroke="black"/>
<rect x="577.96" y="196.235" width="55.6537" height="44.0322" fill="#DED24D" stroke="black"/>
<rect x="634.614" y="196.235" width="55.6537" height="44.0322" fill="#DED24D" stroke="black"/>
<rect x="691.267" y="196.235" width="55.6537" height="44.0322" fill="#DED24D" stroke="black"/>
<rect x="811.482" y="147.716" width="55.6537" height="44.0322" fill="#DED24D" stroke="black"/>
<rect x="868.136" y="147.716" width="55.6537" height="44.0322" fill="#DED24D" stroke="black"/>
<rect x="924.79" y="147.716" width="55.6537" height="44.0322" fill="#DED24D" stroke="black"/>
<rect x="981.443" y="147.716" width="55.6537" height="44.0322" fill="#DED24D" stroke="black"/>
<rect x="1038.1" y="147.716" width="55.6537" height="44.0322" fill="#DED24D" stroke="black"/>
<rect x="811.482" y="196.235" width="55.6537" height="44.0322" fill="#DED24D" stroke="black"/>
<rect x="868.136" y="196.235" width="55.6537" height="44.0322" fill="#DED24D" stroke="black"/>
<rect x="924.79" y="196.235" width="55.6537" height="44.0322" fill="#DED24D" stroke="black"/>
<rect x="981.443" y="196.235" width="55.6537" height="44.0322" fill="#DED24D" stroke="black"/>
<rect x="1038.1" y="196.235" width="55.6537" height="44.0322" fill="#DED24D" stroke="black"/>
<rect x="1151.72" y="89.562" width="55" height="48" fill="#C36D8A" stroke="black"/>
<rect x="1151.72" y="138.562" width="55" height="47" fill="#C36D8A" stroke="black"/>
<rect x="811.482" y="444.292" width="55.6537" height="44.0322" fill="#EB8946" stroke="black"/>
<rect x="868.136" y="444.292" width="55.6537" height="44.0322" fill="#EB8946" stroke="black"/>
<rect x="924.79" y="444.292" width="55.6537" height="44.0322" fill="#EB8946" stroke="black"/>
<rect x="981.443" y="444.292" width="55.6537" height="44.0322" fill="#EB8946" stroke="black"/>
<rect x="1038.1" y="444.292" width="55.6537" height="44.0322" fill="#EB8946" stroke="black"/>
<rect x="1094.75" y="444.292" width="55.6537" height="44.0322" fill="#EB8946" stroke="black"/>
<rect x="1151.4" y="444.292" width="55.6537" height="44.0322" fill="#EB8946" stroke="black"/>
<rect x="811.482" y="492.811" width="55.6537" height="44.0322" fill="#EB8946" stroke="black"/>
<rect x="868.136" y="492.811" width="55.6537" height="44.0322" fill="#EB8946" stroke="black"/>
<rect x="924.79" y="492.811" width="55.6537" height="44.0322" fill="#EB8946" stroke="black"/>
<rect x="981.443" y="492.811" width="55.6537" height="44.0322" fill="#EB8946" stroke="black"/>
<rect x="1038.1" y="492.811" width="55.6537" height="44.0322" fill="#EB8946" stroke="black"/>
<rect x="1094.75" y="492.811" width="55.6537" height="44.0322" fill="#EB8946" stroke="black"/>
<rect x="1151.4" y="492.811" width="55.6537" height="44.0322" fill="#EB8946" stroke="black"/>
<rect x="811.482" y="296.004" width="55.6537" height="44.0322" fill="#EB8946" stroke="black"/>
<rect x="868.136" y="296.004" width="55.6537" height="44.0322" fill="#EB8946" stroke="black"/>
<rect x="924.79" y="296.004" width="55.6537" height="44.0322" fill="#EB8946" stroke="black"/>
<rect x="981.443" y="296.004" width="55.6537" height="44.0322" fill="#EB8946" stroke="black"/>
<rect x="1038.1" y="296.004" width="55.6537" height="44.0322" fill="#EB8946" stroke="black"/>
<rect x="1094.75" y="296.004" width="55.6537" height="44.0322" fill="#EB8946" stroke="black"/>
<rect x="1151.4" y="296.004" width="55.6537" height="44.0322" fill="#EB8946" stroke="black"/>
<rect x="811.482" y="344.523" width="55.6537" height="44.0322" fill="#EB8946" stroke="black"/>
<rect x="868.136" y="344.523" width="55.6537" height="44.0322" fill="#EB8946" stroke="black"/>
<rect x="924.79" y="344.523" width="55.6537" height="44.0322" fill="#EB8946" stroke="black"/>
<rect x="981.443" y="344.523" width="55.6537" height="44.0322" fill="#EB8946" stroke="black"/>
<rect x="1038.1" y="344.523" width="55.6537" height="44.0322" fill="#EB8946" stroke="black"/>
<rect x="1094.75" y="344.523" width="55.6537" height="44.0322" fill="#EB8946" stroke="black"/>
<rect x="1151.4" y="344.523" width="55.6537" height="44.0322" fill="#EB8946" stroke="black"/>
<rect x="1330.63" y="272.983" width="68.7276" height="74.1268" stroke="#404040"/>
<rect x="1330.63" y="561.11" width="68.7276" height="74.1268" stroke="#404040"/>
<rect x="1387.81" y="379.571" width="68.7276" height="74.1268" stroke="black"/>
<rect x="1457.54" y="379.571" width="68.7276" height="74.1268" stroke="black"/>
<rect x="1527.26" y="379.571" width="68.7276" height="74.1268" stroke="black"/>
<rect x="1387.81" y="454.698" width="68.7276" height="74.1268" stroke="black"/>
<rect x="1457.54" y="454.698" width="68.7276" height="74.1268" stroke="black"/>
<rect x="1527.26" y="454.698" width="68.7276" height="74.1268" stroke="black"/>
<rect x="1512.74" y="765.479" width="68.7276" height="74.1268" stroke="black"/>
<rect x="1582.47" y="765.479" width="68.7276" height="74.1268" stroke="black"/>
<rect x="1652.19" y="765.479" width="68.7276" height="74.1268" stroke="black"/>
<rect x="1721.92" y="765.479" width="68.7276" height="74.1268" stroke="black"/>
<rect x="1300.68" y="667.873" width="68.7276" height="74.1268" stroke="black"/>
<rect x="1370.41" y="667.873" width="68.7276" height="74.1268" stroke="black"/>
<rect x="1687.06" y="379.571" width="68.7276" height="74.1268" stroke="black"/>
<rect x="1756.78" y="379.571" width="68.7276" height="74.1268" stroke="black"/>
<rect x="1687.06" y="454.698" width="68.7276" height="74.1268" stroke="black"/>
<rect x="1756.78" y="454.698" width="68.7276" height="74.1268" stroke="black"/>
<rect x="1825.51" y="573.648" width="74.1268" height="68.7276" transform="rotate(90 1825.51 573.648)" stroke="black"/>
<rect x="1825.51" y="648.775" width="74.1268" height="68.7276" transform="rotate(90 1825.51 648.775)" stroke="black"/>
<rect x="1326.72" y="148.698" width="68.7276" height="68.7276" stroke="black"/>
<rect x="1396.45" y="148.698" width="68.7276" height="68.7276" stroke="black"/>
<rect x="1466.18" y="148.698" width="68.7276" height="68.7276" stroke="black"/>
<rect x="1535.9" y="148.698" width="68.7276" height="68.7276" stroke="black"/>
<rect x="1605.63" y="148.698" width="68.7276" height="68.7276" stroke="black"/>
<rect x="1300.72" y="742.562" width="211" height="99" fill="#827E8E" stroke="black"/>
<rect x="1826.72" y="458.562" width="243" height="210" fill="#8E9176" stroke="black"/>
<rect x="1826.51" y="271.183" width="243.209" height="186.379" fill="#D9D9D9" stroke="black"/>
<rect x="1826.72" y="669.562" width="243" height="170" fill="#A78A85" stroke="black"/>
<rect x="1185.89" y="835.732" width="104.455" height="3.87402" fill="#D9D9D9" stroke="black"/>
<rect x="1211.96" y="89.8657" width="82.6638" height="2.7876" fill="#D9D9D9" stroke="black"/>
<defs>
<pattern id="pattern0_126_644" patternUnits="userSpaceOnUse" patternTransform="matrix(42.1393 0 0 21.0696 4 942.196)" preserveAspectRatio="none" viewBox="0 0 42.1393 21.0696" width="1" height="1">
<use xlink:href="#pattern0_126_644_inner" transform="translate(0 -21.0696)"/>
<use xlink:href="#pattern0_126_644_inner" transform="translate(21.0696 -10.5348)"/>
<g id="pattern0_126_644_inner">
<circle cx="4.29993" cy="4.29993" r="4.29993" fill="#D9D9D9"/>
</g>
<use xlink:href="#pattern0_126_644_inner" transform="translate(21.0696 10.5348)"/>
</pattern><pattern id="pattern1_126_644" patternUnits="userSpaceOnUse" patternTransform="matrix(42.1393 0 0 21.0696 4.25732 3.69629)" preserveAspectRatio="none" viewBox="0 0 42.1393 21.0696" width="1" height="1">
<use xlink:href="#pattern1_126_644_inner" transform="translate(0 -21.0696)"/>
<use xlink:href="#pattern1_126_644_inner" transform="translate(21.0696 -10.5348)"/>
<g id="pattern1_126_644_inner">
<circle cx="4.29993" cy="4.29993" r="4.29993" fill="#D9D9D9"/>
</g>
<use xlink:href="#pattern1_126_644_inner" transform="translate(21.0696 10.5348)"/>
</pattern></defs>
</svg>
