<svg width="1179" height="375" viewBox="0 0 1179 375" fill="none" xmlns="http://www.w3.org/2000/svg">
<g clip-path="url(#clip0_224_390)">
<path d="M1070.61 326.049C1070.75 331.681 1070.89 337.312 1071.02 343.758C1070.98 345.285 1070.95 345.996 1070.92 346.708C1072.93 356.199 1074.95 365.69 1076.98 375.59C1074.3 376 1071.6 376 1068.45 376C1065.54 370.061 1063.02 364.147 1060.64 358.176C1058.34 352.415 1056.19 346.595 1054.36 340.456C1057.02 340.403 1059.3 340.87 1061.6 340.955C1068.5 341.21 1068.79 340.738 1069.06 333.958C1069.16 331.305 1070.07 328.684 1070.61 326.049Z" fill="#9BBE25"/>
<path d="M966.866 242.92C971.127 240.761 972.506 236.932 973.439 232.536C974.285 228.547 975.893 224.72 977.54 220.576C988.53 220.556 999.145 220.782 1009.82 221.422C1009.61 223.292 1009.31 224.743 1009.07 226.203C1008.22 231.3 1009.44 232.678 1014.74 233.02C1018.03 233.233 1021.32 233.671 1024.6 234.048C1027.69 234.403 1029.17 233.461 1028.98 229.96C1028.74 225.324 1029.05 220.659 1029.42 216.151C1030.19 218.225 1030.54 220.191 1031.16 222.07C1031.65 223.585 1032.27 226.103 1033.18 226.268C1038.16 227.171 1043.24 227.721 1048.3 227.939C1054.38 228.201 1060.49 228.008 1066.59 228.011C1063.18 234.593 1067.3 240.976 1067.09 247.47C1067.04 249.119 1066.8 250.763 1066.03 252.617C1063.14 251.617 1060.97 249.673 1058.59 249.356C1054.03 248.749 1049.34 248.959 1044.71 249.018C1022.17 249.308 999.625 249.649 977.083 249.997C968.77 250.126 968.032 249.647 966.866 242.92Z" fill="#65942B"/>
<path d="M966.487 242.939C968.032 249.647 968.771 250.126 977.083 249.997C999.625 249.649 1022.17 249.308 1044.71 249.018C1049.34 248.959 1054.03 248.749 1058.59 249.356C1060.97 249.673 1063.14 251.617 1065.74 252.924C1066.44 259.034 1067.64 265.158 1063.01 270.812C1053.86 268.684 1045.47 267.8 1037.88 271.737C1035.25 270.727 1033.1 269.337 1030.85 269.154C1026.11 268.769 1021.31 268.854 1016.55 269.034C998.703 269.71 980.741 267.17 963.01 270.965C962.632 268.368 963.075 265.19 961.724 263.282C957.381 257.149 959.887 251.265 961.68 245.406C962.035 244.247 964.575 243.757 966.487 242.939Z" fill="#709D29"/>
<path d="M638.163 174.618C639.745 177.138 641.834 179.479 642.79 182.217C644.251 186.401 644.929 190.858 645.565 195.641C641.138 195.722 637.082 195.019 633.034 195.068C623.27 195.186 613.509 195.655 603.522 195.752C599.374 192.354 595.851 187.369 591.443 186.395C582.119 184.335 572.919 186.238 565.616 194.112C562.234 194.467 559.264 194.95 556.291 194.963C539.541 195.037 522.79 194.999 505.971 194.999C505.145 193.444 504.242 191.745 503.339 190.046C504.896 184.147 509.046 180.127 513.971 176.29C520.279 176.907 525.969 177.914 531.659 177.917C551.959 177.929 572.259 177.498 592.56 177.438C605.319 177.401 618.083 177.903 630.839 177.74C633.293 177.708 635.722 175.71 638.163 174.618Z" fill="#4C7E2D"/>
<path d="M681.121 34.8157C681.828 50.0057 682.568 64.8361 683.364 80.8226C680.123 80.8226 676.56 81.1166 673.113 80.616C672.25 80.4907 671.218 77.8191 671.187 76.2991C671.005 67.3694 671.098 58.4342 671.098 49.5008C670.456 49.4206 669.815 49.3404 669.174 49.2601C667.09 55.8984 665 62.5348 662.926 69.1761C662.334 71.0705 661.69 72.9564 661.243 74.8865C660.433 78.3869 658.82 80.0403 654.739 80.0924C650.521 80.1463 649.283 78.1622 648.411 74.8094C646.252 66.5149 643.977 58.2505 641.393 48.6516C640.735 51.1563 640.098 52.5144 640.066 53.8867C639.917 60.2116 639.915 66.5404 639.902 72.8679C639.886 80.6131 639.471 81.0425 631.675 80.9066C630.701 80.8896 629.728 80.7853 627.789 80.6581C628.834 63.8973 629.867 47.3211 630.94 30.095C635.827 30.095 640.289 29.8435 644.687 30.2607C645.88 30.3739 647.444 32.3328 647.88 33.7412C650.554 42.3699 652.952 51.0839 655.827 61.1131C657.113 56.3557 658.028 52.7662 659.057 49.2098C660.571 43.9762 662.132 38.7554 663.743 33.551C664.504 31.0953 665.941 29.6899 668.865 30.0144C671.497 30.3065 674.196 30.2076 676.851 30.0429C680.13 29.8395 681.515 31.2336 681.121 34.8157Z" fill="#DD6E37"/>
<path d="M638.09 174.285C635.722 175.71 633.293 177.708 630.839 177.74C618.083 177.903 605.319 177.401 592.56 177.438C572.259 177.498 551.959 177.929 531.659 177.917C525.969 177.914 520.279 176.907 514.285 176.169C516.768 170.467 519.554 164.956 522.943 159.23C529.876 162.986 537.062 161.694 543.852 161.862C560.489 162.274 577.143 162.005 593.791 161.994C602.863 161.989 611.938 161.806 621.004 162.01C624.182 162.082 624.34 160.023 624.976 158.022C629.323 163.332 633.67 168.642 638.09 174.285Z" fill="#41772F"/>
<path d="M498.329 235.027C498.935 232.288 499.542 229.549 500.52 226.603C502.81 229.829 505.977 230.044 509.462 230.037C544.061 229.975 578.661 229.99 613.261 230.008C620.52 230.012 627.91 229.163 634.665 232.917C633.369 234.512 632.073 236.106 630.517 237.955C630.257 238.209 630.351 238.149 630.351 238.149C629.857 238.403 629.362 238.656 628.186 238.895C624.89 239.832 622.286 240.815 619.654 241.717C618.597 242.079 616.982 242.856 616.471 242.428C613.521 239.956 611.319 240.494 608.907 243.245C608.233 244.014 606.402 243.979 605.108 243.96C585.982 243.673 566.857 243.147 547.73 243.062C536.841 243.014 525.942 243.512 515.061 244.053C507.724 244.418 500.979 244.224 498.723 235.319C498.692 235.196 498.464 235.123 498.329 235.027Z" fill="#69982B"/>
<path d="M419.93 131.897C425.784 130.001 431.614 127.255 437.458 131.802C431.396 134.691 433.174 140.149 433.132 144.37C432.87 170.609 433.153 196.853 432.932 223.092C432.825 235.805 432.088 248.515 431.412 261.215C431.341 262.537 429.737 263.777 428.844 265.055C422.361 257.784 422.096 248.124 419.064 239.531C416.75 232.971 417.871 226.229 417.908 219.478C417.977 207.271 420.067 195.367 421.756 183.379C422.308 179.464 422.829 175.517 422.94 171.573C423.104 165.69 420.366 162.695 414.561 161.538C415.823 158.877 420.646 161.608 420.444 156.788C420.098 148.498 420.084 140.195 419.93 131.897Z" fill="#85AD27"/>
<path d="M634.806 232.647C627.909 229.163 620.52 230.012 613.261 230.008C578.661 229.99 544.061 229.975 509.461 230.037C505.977 230.044 502.81 229.829 500.613 226.215C500.941 223.94 501.548 221.845 502.599 219.48C504.185 219.426 505.33 219.846 506.468 219.828C521.089 219.593 535.709 219.15 550.331 219.11C554.391 219.099 557.028 218.056 558.284 214.236C559.771 215.708 560.857 217.159 562.281 218.092C564.021 219.232 566.512 219.495 567.862 220.914C572.186 225.459 577.307 224.436 582.135 223.008C586.409 221.743 589.935 217.76 595.087 220C595.611 220.228 596.788 219.671 597.283 219.131C599.699 216.495 601.987 213.742 604.628 211.158C607.669 215.985 612.047 216.191 616.849 216.066C625.607 215.836 634.375 216.019 643.138 216.029C643.043 216.789 642.947 217.549 642.634 218.803C642.252 219.474 642.119 219.671 642.017 219.889C642.028 225.393 637.822 228.508 634.806 232.647ZM559.8 220.879C559.948 220.907 560.095 220.936 560.243 220.964C560.141 220.895 560.039 220.826 559.8 220.879Z" fill="#62922B"/>
<path d="M579.308 75.3579C579.813 77.1198 580.197 78.5078 580.842 80.8424C576.857 80.8424 573.428 81.14 570.104 80.6795C568.955 80.5203 567.635 78.6308 567.146 77.2625C565.871 73.6974 565.274 69.8797 563.882 66.3709C563.156 64.5392 561.621 62.5796 559.921 61.6842C557.162 60.2309 554.698 60.5802 554.853 64.8039C555 68.7908 554.781 72.791 554.926 76.778C555.033 79.6992 554.067 81.2017 550.935 80.9346C549.284 80.7937 547.357 81.4235 546.013 80.767C544.445 80.001 542.285 78.231 542.26 76.8621C541.994 62.3954 542.056 47.9215 542.198 33.4512C542.209 32.3347 543.519 30.2618 544.208 30.269C552.287 30.3537 560.638 29.5587 568.375 31.3448C580.141 34.061 582.584 45.9379 573.975 54.5829C573.288 55.2726 572.36 55.7215 572.664 55.5125C575.061 62.6688 577.123 68.8264 579.308 75.3579ZM563.934 40.5155C554.711 37.3338 553.402 39.0194 555.604 52.9217C559.006 51.6169 562.852 51.1159 565.012 48.9407C566.272 47.6717 564.835 43.7244 563.934 40.5155Z" fill="#DD6E37"/>
<path d="M962.982 270.97C980.741 267.17 998.703 269.71 1016.55 269.034C1021.31 268.854 1026.11 268.769 1030.85 269.154C1033.1 269.337 1035.25 270.727 1037.88 271.737C1045.47 267.8 1053.86 268.684 1062.72 271.036C1063.83 275.736 1064.51 280.424 1064.8 285.75C1063.54 288.738 1062.68 291.088 1061.6 294.018C1055.59 289.051 1049.42 290.062 1043.13 292.31C1041.91 292.747 1040.55 292.8 1039.26 293.031C1038.12 288.918 1036.97 284.808 1035.84 280.694C1034.63 276.294 1031.69 274.851 1027.35 276.46C1025.77 277.046 1024.16 277.732 1022.51 277.923C1015.74 278.707 1008.95 279.344 1002.15 279.956C1001.41 280.023 1000.62 279.576 999.09 279.209C995.847 280.363 993.36 281.675 990.844 283.001C986.959 283.001 982.625 283.155 978.306 282.958C974.032 282.763 969.249 284.451 965.926 279.844C965.596 279.386 963.289 280.048 962.097 280.609C961.029 281.111 960.233 282.191 959.317 283.016C960.218 279.894 961.118 276.773 962.269 273.068C962.668 272 962.818 271.516 962.967 271.031C962.967 271.031 962.954 270.975 962.982 270.97Z" fill="#79A329"/>
<path d="M624.794 157.728C624.34 160.023 624.182 162.082 621.004 162.01C611.938 161.806 602.863 161.989 593.791 161.994C577.143 162.005 560.489 162.274 543.852 161.862C537.062 161.694 529.876 162.986 523.159 158.958C524.432 155.135 526.09 151.368 528.435 147.307C541.065 147.008 553.012 147.183 564.949 146.906C569.338 146.805 573.703 145.638 578.079 144.957C594.612 145.306 610.761 147.087 624.794 157.728Z" fill="#386F30"/>
<path d="M1078.01 124.925C1077.51 137.065 1077.01 149.205 1075.88 161.588C1063.73 161.286 1052.2 160.169 1040.71 160.493C1036.47 160.613 1032.36 161.316 1028.03 159.828C1027.09 159.478 1026.35 159.306 1025.15 159.109C1015.87 158.727 1007.06 158.372 998.258 158.017C1000.18 152.262 1002.1 146.508 1004.45 140.551C1007.45 141.156 1009.99 142.488 1012.6 142.647C1016.38 142.877 1020.21 142.054 1024.02 142.036C1041.08 141.955 1058.14 142.001 1075.98 142.001C1075.98 137.199 1075.98 131.593 1075.99 125.587C1075.99 124.122 1076 123.057 1076.3 121.998C1076.99 122.016 1077.39 122.026 1077.79 122.037C1077.83 122.505 1077.88 122.974 1077.95 123.989C1077.97 124.537 1078.01 124.925 1078.01 124.925Z" fill="#3E732F"/>
<path d="M523.952 49.795C526.69 59.0056 529.264 67.8576 532.142 76.6094C533.345 80.2648 531.937 80.9119 528.708 80.9705C520.46 81.1203 519.913 81.3415 517.999 73.122C516.255 65.6319 510.877 68.6623 506.692 68.083C502.083 67.4449 502.526 71.1865 501.888 73.9358C500.409 80.3087 495.389 83.0813 489.104 80.7192C488.338 80.4315 487.552 78.3549 487.828 77.4154C492.151 62.6551 496.571 47.9209 501.233 33.2648C501.661 31.9177 503.837 30.3227 505.289 30.2311C517.674 29.4503 517.672 29.5488 521.309 41.3572C522.138 44.0486 523.042 46.717 523.952 49.795ZM505.726 56.7816C508.328 57.3822 510.931 57.9828 514.362 58.7745C512.701 53.0516 511.394 48.5438 510.086 44.036C509.742 44.091 509.399 44.1459 509.055 44.2009C507.982 48.1367 506.909 52.0724 505.726 56.7816Z" fill="#DD6E37"/>
<path d="M395.166 69.9385C398.674 58.008 402.19 46.4973 405.464 34.9181C406.46 31.3981 407.95 29.8595 411.959 29.9718C422.995 30.2809 423.057 30.0437 426.337 40.4755C430.192 52.7419 433.95 65.0392 437.706 77.3365C437.981 78.2369 437.9 79.2462 438.084 81.3372C433.546 80.8062 428.382 81.6485 425.602 79.4607C422.939 77.365 422.752 72.1227 421.446 68.1696C417.164 68.1696 413.045 68.1696 408.625 68.1696C407.867 70.2563 406.999 72.3708 406.327 74.5458C404.53 80.3581 399.877 82.8425 394.098 80.7351C393.326 80.4537 392.453 78.7236 392.634 77.8803C393.186 75.3076 394.229 72.8403 395.166 69.9385ZM417.858 52.7465C416.981 49.8394 416.104 46.9322 415.227 44.0251C414.855 44.0412 414.482 44.0572 414.11 44.0732C412.912 48.5531 411.714 53.033 410.455 57.741C413.561 57.741 416.225 57.741 419.219 57.741C418.753 56.0405 418.412 54.794 417.858 52.7465Z" fill="#DD6E37"/>
<path d="M428.921 265.392C429.737 263.777 431.341 262.537 431.412 261.215C432.089 248.515 432.825 235.805 432.932 223.092C433.154 196.853 432.87 170.609 433.132 144.37C433.174 140.149 431.396 134.691 437.601 132.11C438.137 132.268 438.367 132.504 439.075 133.124C440.355 135.585 441.843 137.641 441.863 139.711C441.916 145.167 441.008 150.634 441.064 156.09C441.212 170.526 441.684 184.959 441.993 199.394C442.171 207.695 442.363 215.997 442.405 224.299C442.455 234.113 442.068 243.939 442.465 253.736C442.606 257.209 443.449 260.38 441.404 263.673C440.719 264.777 441.867 266.876 441.664 268.454C441.292 271.337 440.538 274.171 439.943 277.025C436.295 273.26 432.647 269.494 428.921 265.392Z" fill="#94BA26"/>
<path d="M1076 121.992C1076 123.057 1075.99 124.122 1075.65 125.493C1071.48 125.863 1067.66 125.977 1063.83 125.985C1052.01 126.012 1040.19 125.749 1028.39 126.099C1021.98 126.288 1016.19 125.469 1011.3 121.044C1013.66 115.168 1016.01 109.292 1018.8 103.397C1021.75 104.085 1024.23 105.199 1026.78 105.43C1039.36 106.564 1051.95 106.696 1064.34 103.764C1065.79 103.419 1066.82 101.269 1068.05 99.9564C1069.93 102.184 1071.81 104.411 1073.83 107.306C1074.88 109.315 1075.78 110.655 1076.69 111.995C1076.75 113.093 1076.81 114.191 1076.67 115.966C1076.31 118.426 1076.16 120.209 1076 121.992Z" fill="#2C6631"/>
<path d="M498.237 235.427C498.464 235.123 498.691 235.196 498.723 235.319C500.978 244.224 507.723 244.418 515.061 244.053C525.941 243.512 536.841 243.014 547.73 243.062C566.857 243.147 585.981 243.673 605.108 243.96C606.402 243.979 608.233 244.014 608.907 243.245C611.319 240.494 613.521 239.956 616.471 242.428C616.982 242.856 618.597 242.079 619.654 241.717C622.286 240.815 624.889 239.832 627.776 238.984C622.689 244.266 616.62 248.447 609.674 251.115C604.015 253.289 598.235 256.131 592.363 256.532C584.167 257.091 575.748 256.202 567.585 254.915C559.325 253.613 551.243 251.137 543.121 249.029C541.067 248.496 539.159 247.404 536.575 246.311C536.575 248.772 536.575 250.169 535.94 251.81C529.952 252.368 524.598 252.934 519.243 252.941C510.908 252.952 502.108 254.82 495.142 248.006C496.143 243.946 497.144 239.886 498.237 235.427Z" fill="#709D29"/>
<path d="M699.012 36.9452C699.063 36.6151 699.227 36.3577 700.095 36.0492C703.889 34.5872 707.004 32.4689 710.319 32.0863C715.848 31.4483 721.506 31.9213 727.109 31.9265C727.109 31.9265 727.037 31.9722 727.177 32.2394C728.915 33.3196 730.512 34.1327 732.109 34.9458C732.109 34.9458 732.032 34.9672 732.125 35.2718C732.408 36.0349 732.52 36.5502 732.802 36.9436C740.781 48.0875 741.571 59.5067 734.263 71.3186C733.593 72.401 733.428 73.7955 733.029 75.0451C733.029 75.0451 733 75 732.653 75.051C728.781 76.391 725.306 77.8498 721.718 78.9342C713.846 81.3136 706.926 77.901 699.942 75.0461C699.942 75.0461 700 75.0014 699.91 74.6747C699.592 73.7238 699.451 73.0477 699.12 72.483C693.046 62.1139 691.759 51.6051 697.976 40.7714C698.612 39.6629 698.681 38.2284 699.012 36.9452ZM726.92 48.0228C726.207 46.7124 725.568 45.3542 724.765 44.1008C722.304 40.2576 718.351 38.68 714.44 40.1187C711.545 41.1837 708.564 43.8985 707.136 46.6612C704.503 51.7545 704.426 57.3721 706.484 63.0111C708.582 68.7601 711.29 71.1601 716.816 71.1361C721.58 71.1155 725.979 67.8431 726.83 62.5113C727.542 58.0509 727.034 53.3958 726.92 48.0228Z" fill="#E26F35"/>
<path d="M751.255 33.9802C749.455 31.061 751.698 30.1526 753.675 30.1792C761.941 30.2903 770.357 29.8511 778.427 31.2682C788.679 33.0682 794.673 41.4239 795.201 50.674C795.713 59.6651 794.915 68.0058 787.458 73.9692C784.351 76.4544 780.313 77.7759 776.139 79.4122C769.991 79.1279 764.395 78.865 758.814 79.0504C754.539 79.1924 752.871 77.6169 752.946 73.2653C753.138 62.1401 753.092 51.008 752.927 39.8818C752.898 37.9068 751.839 35.947 751.255 33.9802ZM779.781 66.8742C784.692 63.6575 783.847 58.4557 783.896 53.8305C784.007 43.3904 777.109 37.3147 766.676 37.9946C763.062 38.2301 761.078 39.8104 761.067 43.5071C761.042 51.6492 760.898 59.7967 761.178 67.929C761.233 69.5147 762.753 72.1297 764.005 72.4025C768.743 73.4353 773.633 73.643 777.649 68.8568C778.137 68.2819 778.625 67.7071 779.781 66.8742Z" fill="#DE6E35"/>
<path d="M1011.16 121.393C1016.19 125.469 1021.98 126.288 1028.39 126.099C1040.19 125.749 1052.01 126.012 1063.83 125.985C1067.66 125.977 1071.48 125.863 1075.65 125.892C1075.98 131.593 1075.98 137.199 1075.98 142.001C1058.14 142.001 1041.08 141.955 1024.02 142.036C1020.21 142.054 1016.38 142.877 1012.6 142.647C1009.99 142.488 1007.45 141.156 1004.58 140.194C1006.52 133.941 1008.77 127.841 1011.16 121.393Z" fill="#346E30"/>
<path d="M354.042 71.7787C354.047 59.6576 354.226 48.0049 353.968 36.362C353.868 31.8579 354.668 29.3997 359.893 30.0201C366.885 30.8503 374.072 30.585 380.906 32.049C387.559 33.4744 391.114 39.0896 390.637 46.8657C390.295 52.4478 388.177 58.1071 382.289 60.2986C377.288 62.1595 371.885 62.9381 366.034 64.3461C366.034 67.8507 365.844 71.9792 366.09 76.0816C366.315 79.8326 364.839 81.2585 361.167 80.9448C358.885 80.7498 356.573 80.9086 354.042 80.9086C354.042 77.7501 354.042 75.0005 354.042 71.7787ZM377.168 49.3793C378.89 44.1257 377.895 41.6066 373.434 39.9267C367.704 37.7684 365.932 39.5079 366.081 47.5415C366.114 49.344 366.775 52.6075 367.392 52.6673C369.842 52.9047 372.413 52.2407 374.886 51.6792C375.564 51.5254 376.058 50.5655 377.168 49.3793Z" fill="#DD6E36"/>
<path d="M461.777 40.2059C457.746 44.2692 458.111 46.2427 462.872 48.4414C466.626 50.1757 470.346 51.9913 474.137 53.6425C482.162 57.1377 482.687 73.7674 473.653 78.3136C465.428 82.4532 456.899 81.9976 448.485 79.6049C443.938 78.3118 446.344 74.5452 446.935 71.6156C447.623 68.2033 449.565 68.8294 452.153 69.4485C456.607 70.5139 461.078 72.6443 465.747 69.3228C468.463 67.3908 468.647 65.6622 466.346 63.8778C464.049 62.0969 461.445 60.49 458.721 59.5231C450.119 56.4695 445.984 51.552 446.101 43.836C446.193 37.8221 449.879 33.0775 456.947 30.5488C464.328 27.9084 471.573 28.3249 478.799 32.5362C478.543 33.4529 478.192 34.3258 478.064 35.2303C477.319 40.4774 475.618 43.441 469.554 40.221C467.609 39.1884 464.659 40.0499 461.777 40.2059Z" fill="#DD6E37"/>
<path d="M1028.22 160.006C1032.36 161.316 1036.47 160.613 1040.71 160.493C1052.2 160.169 1063.73 161.286 1075.63 161.917C1075.32 169.729 1074.62 177.455 1073.45 185.593C1066.82 183.659 1060.45 183.665 1053.99 183.947C1050.36 184.106 1046.69 183.509 1043.05 183.68C1038.33 183.903 1033.62 184.549 1028.66 184.679C1028.35 176.231 1028.29 168.119 1028.22 160.006Z" fill="#477B2D"/>
<path d="M377.109 229.075C373.699 237.686 370.29 246.296 366.338 254.683C365.531 248.695 365.034 242.932 365.04 237.169C365.063 211.233 365.285 185.297 365.194 159.362C365.189 157.895 363.036 156.436 361.883 154.973C362.009 154.183 362.134 153.393 362.488 152.126C362.831 151.504 362.93 151.349 363.013 151.184C365.531 145.006 367.024 138.093 374.689 135.738C375.016 145.245 375.072 154.378 374.986 163.51C374.795 183.738 374.468 203.965 374.424 224.193C374.421 225.819 376.173 227.448 377.109 229.075Z" fill="#47792F"/>
<path d="M440.211 277.299C440.538 274.171 441.292 271.337 441.664 268.454C441.867 266.876 440.719 264.777 441.404 263.673C443.449 260.38 442.606 257.209 442.465 253.736C442.068 243.939 442.455 234.113 442.406 224.299C442.363 215.997 442.171 207.695 441.993 199.394C441.684 184.959 441.212 170.526 441.064 156.09C441.008 150.634 441.916 145.167 441.863 139.711C441.843 137.641 440.355 135.585 439.276 133.269C440.857 133.296 442.699 133.579 444.942 134.348C446.461 136.877 448.523 138.908 448.548 140.963C448.765 158.471 448.507 175.983 448.64 193.492C448.674 198.012 449.584 202.526 450.092 207.042C449.061 216.444 447.981 225.84 447.011 235.248C445.711 247.852 451.712 258.604 455.963 269.781C456.838 272.082 458.149 274.217 459.513 276.934C453.129 280.734 446.783 278.784 440.211 277.299Z" fill="#9BBE25"/>
<path d="M926.223 34.9809C926.161 34.5417 926.099 34.1026 926.508 33.2418C934.624 31.0841 935.864 32.1682 935.071 40.3832C935.029 53.2381 935.007 65.619 934.625 78.1973C931.005 78.8049 927.745 79.2152 924.485 79.6256C924.485 79.6256 924.388 79.6001 924.428 79.1708C918.638 67.0309 912.807 55.3203 906.977 43.6097C906.498 43.6958 906.02 43.782 905.542 43.8682C905.234 45.8894 904.662 47.911 904.665 49.9317C904.678 57.7555 904.887 65.5788 904.994 73.4027C905.032 76.1732 905.037 78.9144 901.066 78.9501C897.154 78.9852 896.99 76.3785 896.992 73.5282C897.003 61.866 896.949 50.2035 897.029 38.5418C897.046 36.0544 896.091 32.5714 900.015 32.2254C903.621 31.9075 907.768 30.6095 910.145 35.238C914.781 44.2645 919.544 53.2265 924.29 62.1959C924.859 63.2712 925.655 64.2262 926.346 65.237C926.876 65.136 927.406 65.035 927.935 64.9339C927.545 55.1672 929.136 45.4118 926.951 35.6406C926.893 35.3795 926.474 35.199 926.223 34.9809Z" fill="#DD6E36"/>
<path d="M1028.91 185.014C1033.62 184.549 1038.33 183.903 1043.05 183.68C1046.69 183.509 1050.35 184.106 1053.99 183.947C1060.45 183.665 1066.82 183.659 1073.36 186.011C1073.77 186.456 1073.8 186.895 1073.59 187.757C1073.24 188.789 1073.13 189.399 1073.03 190.008C1071.89 195.831 1070.76 201.654 1068.95 207.837C1058.36 208.419 1048.3 209.748 1038.56 208.528C1030.04 207.459 1031.32 207.998 1030.94 199.976C1030.8 196.972 1029.94 194.003 1029.31 190.596C1029.12 188.454 1029.01 186.734 1028.91 185.014Z" fill="#53852D"/>
<path d="M361.642 155.235C363.036 156.436 365.189 157.895 365.194 159.362C365.285 185.297 365.063 211.233 365.039 237.169C365.034 242.932 365.531 248.695 366.015 254.807C365.616 260.814 361.889 263.097 356.394 263.354C356.009 241.144 356.121 219.453 355.858 197.766C355.823 194.821 353.913 191.897 352.872 188.964C352.949 188.514 353.026 188.064 353.297 187.054C353.664 185.999 353.837 185.506 354.01 185.012C356.473 175.174 358.937 165.336 361.642 155.235Z" fill="#3C7130"/>
<path d="M730.714 242.959C722.015 250.867 713.121 258.501 701.471 261.785C699.132 262.445 696.359 263.434 694.27 262.765C686.9 260.403 679.41 257.993 672.659 254.326C669.861 252.806 668.813 248.064 667.001 244.281C666.797 243.508 666.562 243.24 666.327 242.973C666.354 239.849 666.382 236.726 666.865 233.599C670.481 242.625 670.995 242.907 680.399 243.018C697.171 243.214 713.94 240.289 730.714 242.959Z" fill="#85AD27"/>
<path d="M745.755 148.672C746.228 148.469 746.702 148.266 747.801 148.209C750.207 149.072 751.959 150.316 753.772 150.411C760.382 150.758 767.013 150.686 773.634 150.842C776.975 150.922 780.311 151.153 783.65 151.316C786.688 149.861 789.631 147.448 792.783 147.133C802.126 146.2 808.702 152.549 806.85 164.56C803.904 164.142 801.567 163.136 799.207 163.081C790.834 162.884 782.454 163.012 774.177 162.71C775.139 161.297 776.002 160.191 776.866 159.084C776.684 158.797 776.502 158.509 776.32 158.222C772.137 159.598 767.955 160.974 763.308 162.327C753.064 162.171 743.28 162.137 733.505 161.818C731.63 161.757 729.792 160.577 727.938 159.913C733.464 156.328 738.991 152.743 744.964 149.032C745.41 148.905 745.755 148.672 745.755 148.672Z" fill="#306731"/>
<path d="M1009.76 221.008C999.144 220.782 988.529 220.557 977.623 220.198C980.364 210.868 983.396 201.671 987.043 192.36C989.915 192.302 992.175 192.298 994.427 192.427C999.103 192.696 1003.79 192.909 1008.44 193.398C1010.99 193.666 1013.48 194.45 1015.97 195.403C1013.88 204.206 1011.82 212.607 1009.76 221.008Z" fill="#56872D"/>
<path d="M221.255 123.129C216.078 126.081 210.901 129.033 205.371 131.592C204.494 119.034 203.929 106.871 203.507 94.7034C203.465 93.4915 204.203 92.2074 204.744 91.0329C205.316 89.7932 206.085 88.6447 207.017 87.0228C204.47 87.0228 202.745 87.0228 201.02 87.0228C207.122 82.3862 213.225 77.7497 219.749 73.4905C221.113 77.247 222.715 80.5964 222.869 84.0113C223.266 92.7859 222.804 101.598 223.129 110.378C223.277 114.377 224.373 118.298 220.53 121.268C220.382 121.383 220.996 122.486 221.255 123.129Z" fill="#87AF28"/>
<path d="M135.236 180.175C133.54 186.99 131.404 193.74 130.389 200.654C130.04 203.027 132.493 205.811 133.716 209.068C133.764 210.869 133.753 212.01 133.762 213.152C133.847 223.334 133.935 233.517 134.022 243.699C131.281 243.092 128.539 242.485 125.406 241.338C125.009 227.206 125.114 213.612 124.96 200.022C124.854 190.668 124.287 181.321 124.109 171.967C123.916 161.865 123.936 151.76 123.864 141.656C123.864 141.656 123.867 141.316 124.238 141.063C125.395 139.874 126.181 138.938 126.966 138.001C127.162 137.734 127.357 137.466 128.15 137.077C130.757 136.491 132.767 136.026 134.907 135.531C134.228 139.017 133.213 142.142 133.087 145.303C132.816 152.067 132.727 158.865 133.097 165.62C133.365 170.496 134.492 175.325 135.236 180.175Z" fill="#41772F"/>
<path d="M210.034 303.283C217.215 296.959 216.672 290.213 208.484 281.304C209.776 280.547 211.757 280.206 211.828 279.631C212.432 274.723 212.689 269.773 213.05 264.836C225.058 272.874 234.504 287.192 231.629 304.119C229.745 315.218 222.617 320.662 213.21 324.474C213.514 322.75 214.09 321.424 214.55 320.366C213.793 318.722 212.274 317.036 212.545 315.721C213.501 311.102 212.851 307.033 210.034 303.283Z" fill="#8CB227"/>
<path d="M123.507 141.718C123.936 151.76 123.916 161.865 124.109 171.967C124.287 181.321 124.854 190.668 124.96 200.022C125.114 213.612 125.009 227.206 125.018 241.245C121.841 240.309 118.66 238.927 115.33 236.951C115.455 231.498 115.946 226.64 115.965 221.779C116.049 199.662 116.064 177.543 115.911 155.426C115.894 152.943 114.656 150.469 113.984 147.991C117.039 145.921 120.095 143.851 123.507 141.718Z" fill="#3C7130"/>
<path d="M230.041 68.3382C238.293 66.6599 245.446 69.3885 252.011 74.0484C253.261 74.9358 254.238 76.5144 254.816 77.981C256.15 81.3642 256.861 85.0109 258.361 88.3068C262.345 97.0625 259.128 102.783 249.866 108.054C245.175 110.723 240.424 113.289 235.441 115.534C235.515 101.001 235.886 86.8361 236.081 72.6688C236.091 71.9004 234.727 70.974 233.836 70.3666C232.657 69.5636 231.314 69.003 230.041 68.3382Z" fill="#A2C425"/>
<path d="M377.347 228.808C376.172 227.448 374.42 225.819 374.424 224.193C374.467 203.965 374.795 183.738 374.985 163.51C375.071 154.378 375.015 145.245 375.028 135.691C375.487 135.214 375.941 135.159 376.942 135.471C378.054 136.164 378.637 136.799 379.184 136.769C384.275 136.487 385.482 139.331 385.021 143.706C384.882 145.024 385.012 146.37 384.999 147.703C384.816 166.33 384.59 184.957 384.541 203.584C384.538 204.715 385.938 205.849 386.685 206.981C383.652 214.168 380.618 221.355 377.347 228.808Z" fill="#52832D"/>
<path d="M820.053 39.7434C819.812 39.7809 819.572 39.8184 818.625 39.9729C814.744 43.2133 815.279 47.1623 817.377 49.9592C818.328 51.2267 822.332 50.2035 824.951 50.2195C827.025 50.1836 829.099 50.1477 831.865 50.4315C835.259 56.153 834.196 57.7383 828.264 58.1441C824.82 58.3797 821.428 59.3796 818.012 60.0357C818.012 60.0357 817.998 59.9979 817.703 60.1987C816.929 62.4286 816.494 64.4689 815.964 66.4844C814.816 70.8511 816.851 72.195 820.902 72.0207C824.384 71.8708 827.937 71.6422 831.341 72.1839C832.997 72.4474 834.386 74.3913 835.896 75.5745C834.426 76.729 833.008 78.792 831.477 78.88C825.019 79.2513 818.528 78.9991 812.049 79.0451C808.483 79.0704 806.951 77.3427 806.965 73.8405C807.014 61.3808 807.014 48.9207 806.984 36.4609C806.976 33.331 808.417 31.9283 811.533 31.9545C818.012 32.009 824.505 31.7397 830.96 32.1335C832.524 32.229 833.963 34.3837 835.46 35.5915C833.949 36.7346 832.572 38.5511 830.901 38.8814C827.366 39.58 823.678 39.5025 820.053 39.7434Z" fill="#E26F35"/>
<path d="M794.716 204.023C793.341 208.227 791.966 212.432 790.205 216.681C785.15 217.132 780.458 218.044 775.82 217.826C768.806 217.496 761.287 220.058 754.916 214.827C754.485 214.473 753.379 214.969 752.583 215.029C745.556 215.556 738.524 216.45 731.502 216.387C729.096 216.365 726.712 213.939 724.527 212.335C728.483 208.811 732.23 205.565 736.069 202.613C736.929 203.815 737.699 204.722 738.469 205.629C739.179 204.907 739.889 204.184 740.599 203.461C739.369 202.958 738.139 202.456 737.072 201.711C737.831 200.98 738.427 200.492 739.321 200.175C741.494 204 745.015 204.489 748.493 204.668C753.769 204.94 759.065 205.07 764.346 204.964C774.471 204.76 784.593 204.348 794.716 204.023Z" fill="#62922B"/>
<path d="M503.242 190.445C504.242 191.745 505.145 193.444 505.971 194.999C522.79 194.999 539.541 195.037 556.29 194.963C559.263 194.95 562.234 194.467 565.589 194.503C565.936 198.988 563.703 201.514 560.082 203.359C558.959 203.931 558.475 205.759 557.534 206.856C553.865 210.32 549.496 209.579 545.172 209.162C544.532 209.1 543.864 209.431 543.206 209.444C534.576 209.606 525.945 209.859 517.316 209.836C513.305 209.825 509.296 209.266 505.287 208.955C505.413 204.596 506.936 200.177 503.801 196.039C502.888 194.833 503.326 192.604 503.242 190.445Z" fill="#56872D"/>
<path d="M643.397 215.779C634.375 216.019 625.607 215.836 616.85 216.066C612.048 216.191 607.67 215.985 604.705 210.792C607.102 205.38 605.966 200.654 603.747 195.983C613.509 195.655 623.27 195.186 633.034 195.068C637.082 195.02 641.138 195.722 645.563 196.042C645.308 202.526 647.729 209.407 643.397 215.779Z" fill="#56872D"/>
<path d="M794.923 203.722C784.592 204.348 774.471 204.76 764.346 204.964C759.064 205.07 753.769 204.94 748.493 204.668C745.015 204.489 741.494 204 739.445 199.865C743.193 195.594 747.114 191.805 751.385 188.169C755.294 188.882 758.833 189.722 762.411 189.951C774.861 190.749 787.325 191.336 799.783 192.002C798.233 195.809 796.682 199.615 794.923 203.722Z" fill="#56872D"/>
<path d="M730.994 242.754C713.94 240.289 697.171 243.214 680.399 243.018C670.995 242.907 670.481 242.625 667.135 233.29C667.016 231.279 667.083 229.573 667.523 227.627C670.128 228.581 672.316 230.705 674.599 230.811C687.192 231.399 699.872 232.38 712.397 231.483C722.629 230.75 733.36 233.131 743.13 228.034C739.178 232.873 735.226 237.711 730.994 242.754Z" fill="#79A329"/>
<path d="M952.483 315.451C954.03 308.243 955.578 301.035 957.61 293.527C965 293.487 971.904 293.758 978.809 294.005C984.099 294.195 989.309 294.584 993.098 299.029C991.599 304.199 990.099 309.369 988.003 314.718C985.926 315.276 984.435 315.62 982.967 316.045C981.937 316.343 980.942 317.055 979.928 317.06C972.081 317.101 964.232 317.082 956.388 316.9C955.076 316.869 953.784 315.956 952.483 315.451Z" fill="#85AD27"/>
<path d="M1068.04 99.9723C1066.82 101.269 1065.79 103.419 1064.34 103.764C1051.95 106.696 1039.36 106.564 1026.78 105.43C1024.23 105.199 1021.75 104.085 1019 103.104C1020.85 98.3795 1022.51 93.6463 1025.2 89.5957C1026.55 87.5536 1029.73 85.6727 1032.16 85.5675C1044.05 85.0533 1055.73 85.9386 1064.78 95.8844C1065.29 96.8864 1065.71 97.3962 1066.13 97.906C1066.13 97.906 1066.1 97.9597 1066.19 98.2115C1066.87 98.9643 1067.46 99.4652 1068.05 99.9661C1068.05 99.9661 1068.02 99.9883 1068.04 99.9723Z" fill="#255E33"/>
<path d="M113.701 148.149C114.656 150.469 115.894 152.943 115.911 155.426C116.064 177.543 116.049 199.662 115.965 221.779C115.946 226.64 115.455 231.498 115.07 236.724C111.742 234.618 108.527 232.147 105.235 229.046C105.685 226.698 106.652 224.984 106.67 223.26C106.865 204.555 107 185.848 106.918 167.142C106.903 163.608 105.861 160.079 105.293 156.548C105.56 156.153 105.827 155.757 106.379 155.035C106.665 154.709 106.888 154.478 106.888 154.478C106.888 154.478 107.204 154.116 107.427 153.922C107.651 153.728 107.815 153.55 107.815 153.55C107.815 153.55 108.127 153.191 108.375 152.976C108.624 152.76 108.877 152.48 108.877 152.48C109.165 152.129 109.453 151.779 110.099 151.091C110.613 150.621 110.751 150.471 110.871 150.303C111.72 149.638 112.569 148.973 113.701 148.149Z" fill="#346E30"/>
<path d="M200.689 87.1303C202.745 87.0228 204.47 87.0228 207.017 87.0228C206.085 88.6448 205.316 89.7933 204.744 91.0329C204.203 92.2074 203.465 93.4916 203.507 94.7034C203.929 106.871 204.494 119.034 205.021 131.667C200.647 134.107 196.27 136.077 191.187 137.896C189.685 136.039 188.25 134.351 188.202 132.625C187.943 123.339 188.224 114.035 187.859 104.756C187.768 102.448 185.979 100.207 184.97 97.9347C190.099 94.3691 195.229 90.8034 200.689 87.1303Z" fill="#79A329"/>
<path d="M743.424 227.899C733.36 233.131 722.629 230.75 712.397 231.483C699.871 232.38 687.192 231.399 674.599 230.811C672.316 230.705 670.128 228.581 667.619 227.212C668.382 222.857 669.421 218.678 671.036 214.456C674.881 215.607 678.117 217.691 681.424 217.812C688.644 218.076 695.9 217.342 703.035 217.388C702.327 218.883 701.218 220.012 701.231 221.129C701.254 223.285 701.91 225.434 702.304 227.586C704.369 226.98 706.662 226.752 708.444 225.678C711.1 224.077 713.396 221.879 716.207 220.044C723.422 224.171 730.862 222.906 738.232 222.731C741.475 222.654 744.738 223.386 747.992 223.75C746.567 225.088 745.142 226.425 743.424 227.899Z" fill="#6F9B29"/>
<path d="M105.005 156.681C105.861 160.079 106.903 163.608 106.918 167.142C107 185.848 106.865 204.555 106.67 223.26C106.652 224.984 105.685 226.698 105.051 228.772C101.13 225.81 97.3169 222.493 93.395 218.587C94.1594 215.546 95.7839 213.092 95.7792 210.641C95.7546 197.723 95.3268 184.806 94.98 171.89C94.9715 171.572 94.2801 171.273 93.9072 170.964C94.0653 170.459 94.2235 169.954 94.5645 169.085C94.7474 168.722 94.7902 168.696 94.7902 168.696C98.0993 164.735 101.408 160.774 105.005 156.681Z" fill="#2C6631"/>
<path d="M1029.4 191.018C1029.94 194.003 1030.8 196.972 1030.94 199.976C1031.32 207.998 1030.04 207.459 1038.56 208.528C1048.3 209.748 1058.36 208.419 1068.7 208.115C1068.35 214.412 1067.58 220.794 1066.7 227.593C1060.49 228.008 1054.38 228.201 1048.3 227.939C1043.24 227.721 1038.16 227.171 1033.18 226.268C1032.27 226.103 1031.65 223.585 1031.16 222.07C1030.54 220.191 1030.18 218.225 1029.34 215.716C1029.11 207.097 1029.25 199.057 1029.4 191.018Z" fill="#5D8E2C"/>
<path d="M277.87 178.963C280.704 175.043 283.537 171.124 286.686 167.437C287.334 174.433 287.923 181.196 287.952 187.96C288.064 214.068 288.073 240.176 287.91 266.283C287.888 269.828 286.675 273.366 286.014 276.907C284.468 277.175 282.922 277.442 281.158 277.035C280.96 265.623 280.891 254.884 281.021 244.147C281.26 224.405 281.734 204.665 281.742 184.925C281.743 182.938 279.221 180.95 277.87 178.963Z" fill="#5C8C2D"/>
<path d="M297.051 161.971C297.731 161.825 298.412 161.68 299.601 161.908C300.388 163.568 300.906 164.855 300.906 166.142C300.903 180.027 300.734 193.912 300.86 207.795C300.877 209.59 302.307 211.373 303.082 213.161C301.48 222.567 299.799 231.961 298.358 241.391C298.14 242.818 299.037 244.414 299.938 246.419C301.308 248.952 302.66 250.938 302.906 253.053C303.479 257.992 303.52 262.992 303.777 267.968C302.02 269.23 300.262 270.492 298.068 271.991C297.45 272.351 297.297 272.502 297.172 272.68C296.709 272.789 296.247 272.898 295.311 272.733C294.843 261.735 294.862 251.011 294.85 240.287C294.839 229.711 294.79 219.134 294.768 208.557C294.748 198.605 294.963 188.645 294.641 178.702C294.465 173.277 293.389 167.88 292.72 162.471C292.918 162.241 293.162 162.083 294.067 161.994C295.471 161.985 296.261 161.978 297.051 161.971Z" fill="#79A329"/>
<path d="M292.382 162.54C293.39 167.88 294.465 173.277 294.641 178.702C294.963 188.645 294.748 198.605 294.768 208.558C294.79 219.134 294.839 229.711 294.85 240.287C294.862 251.011 294.843 261.735 294.961 272.8C292.312 274.436 289.541 275.732 286.392 276.967C286.675 273.366 287.888 269.828 287.91 266.283C288.073 240.176 288.064 214.068 287.952 187.96C287.923 181.196 287.334 174.433 286.97 167.252C288.641 165.425 290.343 164.017 292.382 162.54Z" fill="#69982B"/>
<path d="M184.644 98.0559C185.978 100.207 187.768 102.448 187.859 104.756C188.223 114.035 187.943 123.339 188.202 132.625C188.25 134.351 189.685 136.039 190.811 137.905C184.678 142.382 178.214 146.699 171.477 150.739C171.903 147.776 173.215 145.081 173.183 142.403C173.101 135.45 172.908 128.428 171.82 121.584C171.112 117.13 168.757 112.939 167.14 108.63C172.866 105.146 178.592 101.661 184.644 98.0559Z" fill="#6C992A"/>
<path d="M352.631 189.232C353.914 191.897 355.823 194.821 355.859 197.766C356.121 219.453 356.009 241.144 356.02 263.284C352.491 264.457 349.483 263.752 347.167 259.926C346.21 257.321 345.152 255.397 344.836 253.358C344.547 251.494 345.143 249.508 345.203 247.571C345.34 243.095 345.07 238.58 345.575 234.15C345.976 230.629 345.47 227.906 342.343 225.991C344.498 217.758 346.605 209.512 348.829 201.298C349.903 197.334 351.197 193.43 352.631 189.232Z" fill="#306731"/>
<path d="M893.066 227.039C890.157 223.231 887.248 219.423 884.556 215.173C885.512 213.03 886.771 211.363 886.886 209.62C887.19 205.014 886.903 200.372 887.031 195.75C887.158 191.171 887.503 186.599 887.753 182.024C891.496 185.729 895.24 189.434 898.905 193.833C898.838 201.979 898.834 209.43 898.864 216.881C898.908 227.958 898.976 239.036 899.034 250.114C897.31 250.411 895.585 250.708 893.198 251.059C892.035 251.319 891.534 251.525 891.033 251.731C889.834 251.787 888.635 251.842 887.248 251.39C888.275 244.086 889.592 237.28 885.029 231.078C887.126 230.097 889.224 229.117 891.831 228.188C892.583 227.84 892.824 227.439 893.066 227.039Z" fill="#80A828"/>
<path d="M491.886 265.954C491.965 264.905 492.044 263.856 492.529 262.57C495.619 263.082 498.284 264.389 500.989 264.48C511.234 264.825 521.493 264.776 531.746 264.874C530.726 270.102 529.706 275.33 527.948 280.797C517.589 281.038 507.962 280.838 498.35 281.145C494.704 281.261 490.969 283.173 488.33 279.024C489.239 275.273 490.147 271.522 491.33 267.347C491.698 266.6 491.792 266.277 491.886 265.954Z" fill="#80A828"/>
<path d="M952.464 315.505C953.784 315.956 955.076 316.869 956.388 316.9C964.232 317.082 972.081 317.101 979.928 317.06C980.942 317.055 981.937 316.343 982.967 316.045C984.435 315.62 985.926 315.276 987.739 314.959C988.012 315.474 987.954 315.927 987.688 316.924C987.32 317.939 987.16 318.409 986.999 318.878C985.558 324.778 984.118 330.677 981.983 336.761C972.774 336.404 964.259 335.862 955.744 335.319C955.838 335.548 955.932 335.776 956.025 336.004C954.112 335.008 952.199 334.011 950.286 333.015C950.898 327.946 951.51 322.877 952.275 317.17C952.52 316.233 952.559 315.928 952.546 315.616C952.546 315.616 952.445 315.56 952.464 315.505Z" fill="#8FB626"/>
<path d="M578.036 144.566C573.703 145.638 569.338 146.805 564.949 146.906C553.012 147.183 541.065 147.008 528.67 147.015C531.261 140.793 534.304 134.569 537.761 128.384C538.399 129.656 538.624 130.888 538.936 132.597C548.947 132.597 558.756 132.662 568.563 132.514C569.76 132.496 570.94 131.336 572.129 130.705C574.083 135.195 576.038 139.684 578.036 144.566Z" fill="#306731"/>
<path d="M229.677 68.3425C231.314 69.003 232.658 69.5636 233.836 70.3666C234.728 70.974 236.092 71.9004 236.081 72.6687C235.886 86.8361 235.515 101.001 235.088 115.572C230.656 118.343 226.319 120.708 221.619 123.101C220.996 122.486 220.382 121.383 220.53 121.268C224.373 118.298 223.277 114.377 223.129 110.378C222.804 101.598 223.266 92.7859 222.869 84.0113C222.715 80.5965 221.113 77.2471 220.103 73.5183C223.128 71.5614 226.22 69.9541 229.677 68.3425Z" fill="#94BA26"/>
<path d="M872.327 204.341C869.987 202.41 867.648 200.48 865.305 197.935C866.517 194.151 868.601 191.028 868.775 187.802C869.221 179.569 868.901 171.288 868.718 163.03C868.592 157.305 868.186 151.586 867.905 145.864C871.715 142.675 875.525 139.486 879.576 136.564C879.138 141.025 877.86 145.226 877.904 149.413C877.998 158.301 879.163 167.181 879.172 176.065C879.18 184.809 877.447 193.539 879.085 202.325C879.223 203.062 877.734 204.102 876.91 204.707C875.371 201.334 873.839 203.461 872.327 204.341Z" fill="#69982B"/>
<path d="M450.369 206.779C449.584 202.526 448.674 198.012 448.64 193.492C448.508 175.983 448.765 158.47 448.548 140.963C448.523 138.908 446.461 136.877 445.189 134.543C453.197 135.58 457.531 141.405 459.911 148.38C463.51 158.929 461.679 169.422 458.189 179.846C455.26 188.597 453.131 197.615 450.369 206.779Z" fill="#A2C425"/>
<path d="M950.181 333.317C952.199 334.011 954.112 335.008 956.025 336.004C955.932 335.776 955.838 335.548 955.744 335.319C964.259 335.862 972.774 336.404 981.716 336.998C979.841 342.588 977.684 348.193 975.194 353.646C973.065 358.308 962.897 361.722 958.857 360.623C953.445 359.151 950.735 354.709 950.097 349.187C949.663 345.423 949.446 341.635 949.256 337.302C949.462 336.498 949.438 336.26 949.311 336.031C949.566 335.227 949.821 334.423 950.181 333.317Z" fill="#98BD25"/>
<path d="M386.797 206.609C385.938 205.849 384.538 204.715 384.541 203.584C384.59 184.957 384.816 166.33 384.999 147.703C385.012 146.37 384.882 145.024 385.021 143.706C385.482 139.331 384.275 136.487 379.184 136.769C378.637 136.799 378.055 136.164 377.279 135.557C384.935 134.192 392.288 134.394 396.36 143.273C395.889 144.99 394.927 146.38 394.931 147.767C394.951 154.337 395.791 160.956 395.222 167.459C394.858 171.623 394.432 175.158 398 178.003C394.303 187.414 390.605 196.826 386.797 206.609Z" fill="#5C8C2D"/>
<path d="M166.83 108.685C168.757 112.939 171.111 117.13 171.82 121.584C172.908 128.428 173.101 135.45 173.183 142.403C173.215 145.081 171.903 147.776 171.137 150.828C166.616 154.787 162.161 158.382 157.366 161.637C157.643 158.26 158.261 155.224 159.009 151.548C158.679 150.509 157.525 148.499 157.496 146.473C157.411 140.499 158.17 134.494 157.808 128.549C157.59 124.971 155.897 121.483 154.867 117.955C158.752 114.883 162.637 111.812 166.83 108.685Z" fill="#5F8F2C"/>
<path d="M799.998 191.704C787.325 191.336 774.861 190.749 762.411 189.951C758.833 189.722 755.294 188.882 751.535 187.872C755.876 183.24 760.42 179.058 765.174 175.144C769.367 175.942 773.336 176.629 777.336 176.968C786.616 177.755 795.91 178.374 805.198 179.062C803.536 183.176 801.874 187.291 799.998 191.704Z" fill="#4A7C2E"/>
<path d="M877 205.001C877.733 204.102 879.223 203.062 879.085 202.325C877.447 193.539 879.18 184.809 879.172 176.065C879.163 167.181 877.998 158.301 877.904 149.413C877.86 145.226 879.138 141.025 879.913 136.529C880.01 136.227 880.426 135.97 881.045 135.989C885.823 136.594 887.164 139.395 886.956 143.118C886.461 151.982 885.794 160.837 885.294 169.701C885.233 170.784 885.772 171.9 886.032 173.001C886.566 175.765 887.099 178.529 887.693 181.658C887.504 186.599 887.158 191.171 887.031 195.75C886.904 200.372 887.191 205.014 886.886 209.62C886.771 211.363 885.512 213.03 884.428 214.868C881.829 212.884 879.574 210.764 877.143 207.99C876.977 206.556 876.988 205.777 877 204.999V205.001Z" fill="#749F29"/>
<path d="M154.521 118.005C155.897 121.483 157.59 124.971 157.808 128.549C158.17 134.494 157.411 140.499 157.496 146.473C157.525 148.499 158.679 150.509 159.009 151.548C158.261 155.224 157.642 158.26 157.031 161.738C152.596 166.105 148.154 170.03 143.382 173.598C144.056 159.382 145.177 145.53 145.953 131.657C146.085 129.294 144.737 126.848 144.073 124.439C147.44 122.311 150.808 120.183 154.521 118.005Z" fill="#53852D"/>
<path d="M748.314 223.653C744.738 223.386 741.476 222.654 738.232 222.731C730.862 222.906 723.422 224.171 716.399 219.768C718.926 217.126 721.622 214.869 724.318 212.611C726.712 213.939 729.096 216.365 731.502 216.387C738.524 216.45 745.556 215.556 752.583 215.029C753.378 214.969 754.485 214.473 754.916 214.827C761.287 220.058 768.806 217.496 775.819 217.826C780.458 218.044 785.15 217.132 789.939 216.918C788.764 220.499 787.468 223.889 785.57 227.643C778.637 228.664 772.313 229.387 765.973 229.936C764.192 230.091 762.096 229.107 760.614 229.743C757.062 231.267 755.115 229.744 753.384 227.043C753.845 224.216 754.306 221.389 754.767 218.562C754.365 218.264 753.963 217.966 753.561 217.668C751.92 219.63 750.278 221.592 748.314 223.653ZM724.229 216.939C724.106 217.025 723.982 217.111 723.858 217.197C723.979 217.173 724.1 217.149 724.229 216.939Z" fill="#6C992A"/>
<path d="M277.585 179.129C279.221 180.95 281.743 182.938 281.742 184.925C281.734 204.665 281.26 224.405 281.021 244.147C280.891 254.884 280.96 265.623 280.922 276.779C279.134 276.52 277.364 275.842 275.309 274.551C274.889 271.95 274.64 269.963 274.634 267.976C274.551 242.231 274.532 216.486 274.378 190.742C274.368 189.143 273.365 187.55 272.824 185.954C274.316 183.735 275.808 181.515 277.585 179.129Z" fill="#4E812E"/>
<path d="M484.355 301.051C485.039 297.209 485.722 293.366 486.869 289.566C488.105 293.127 489.624 295.993 493.796 295.897C503.892 295.665 513.986 295.321 524.081 295.022C522.603 299.205 521.124 303.389 519.057 307.951C515.895 311.326 512.639 312.186 508.738 312.061C501.548 311.831 494.346 311.996 487.012 311.996C486.146 308.429 485.251 304.74 484.355 301.051Z" fill="#8FB626"/>
<path d="M143.772 124.552C144.737 126.848 146.085 129.294 145.953 131.658C145.178 145.53 144.057 159.382 143.036 173.675C140.648 176.092 138.277 178.076 135.571 180.117C134.492 175.325 133.365 170.496 133.097 165.62C132.727 158.865 132.816 152.067 133.087 145.303C133.213 142.142 134.228 139.017 134.907 135.531C132.767 136.026 130.757 136.491 128.375 136.964C133.158 132.87 138.314 128.767 143.772 124.552Z" fill="#4A7C2E"/>
<path d="M524.373 294.769C513.986 295.321 503.892 295.665 493.796 295.897C489.624 295.993 488.105 293.127 487.146 289.296C487.358 285.936 487.756 282.889 488.242 279.432C490.969 283.173 494.704 281.261 498.351 281.145C507.962 280.838 517.59 281.038 527.69 281.047C527.464 283.723 526.751 286.386 526.055 289.053C525.58 290.871 525.127 292.695 524.373 294.769Z" fill="#87AF28"/>
<path d="M484.259 301.491C485.251 304.74 486.146 308.429 487.012 311.996C494.346 311.996 501.548 311.831 508.738 312.061C512.64 312.186 515.896 311.326 518.789 308.181C518.688 310.435 518.268 312.837 517.724 315.752C517.527 316.516 517.568 316.746 517.723 316.957C518.891 320.367 520.418 323.818 515.885 326.841C509.589 327.01 504.034 327.009 498.479 327C492.718 326.991 486.408 329.225 482.158 323.02C482.826 315.99 483.494 308.96 484.259 301.491Z" fill="#9BBE25"/>
<path d="M1039.18 293.409C1040.55 292.8 1041.91 292.747 1043.13 292.31C1049.42 290.062 1055.59 289.051 1061.6 294.018C1062.68 291.088 1063.54 288.738 1064.71 286.193C1065.01 289.667 1064.99 293.336 1065.07 297.655C1065.27 298.555 1065.43 298.776 1065.63 298.966C1065.83 300.844 1066.03 302.722 1066.1 305.357C1065.11 309.364 1064.25 312.614 1063.65 314.855C1060.53 314.855 1058.25 314.821 1055.97 314.863C1052.4 314.93 1048.84 315.048 1045.27 315.144C1043.87 310.725 1042.47 306.306 1040.98 301.24C1040.67 300.071 1040.47 299.549 1040.27 299.028C1039.88 297.281 1039.49 295.534 1039.18 293.409Z" fill="#85AD27"/>
<path d="M482.092 323.462C486.408 329.225 492.718 326.991 498.479 327C504.034 327.009 509.589 327.01 515.561 327.007C515.359 332.041 513.237 333.598 508.565 333.323C506.915 337.894 505.748 342.311 503.773 346.33C500.526 352.937 491.591 352.958 487.76 346.565C483.585 339.597 481.609 332.046 482.092 323.462Z" fill="#A5C624"/>
<path d="M505.175 209.327C509.296 209.266 513.305 209.825 517.316 209.836C525.945 209.859 534.576 209.606 543.206 209.444C543.864 209.431 544.532 209.1 545.172 209.162C549.496 209.579 553.865 210.32 557.626 207.284C557.933 209.907 557.983 211.946 558.032 213.986C557.028 218.056 554.392 219.099 550.331 219.11C535.71 219.15 521.089 219.593 506.468 219.828C505.33 219.846 504.185 219.426 502.69 219.118C503.246 215.917 504.155 212.808 505.175 209.327Z" fill="#5D8E2C"/>
<path d="M727.601 159.996C729.792 160.577 731.63 161.757 733.505 161.818C743.28 162.137 753.064 162.171 763.058 162.59C756.109 167.368 748.947 171.86 741.283 176.296C737.156 176.396 733.534 176.578 729.909 176.704C722.708 176.954 715.318 178.23 709.079 173.022C715.141 168.708 721.202 164.393 727.601 159.996Z" fill="#3C7130"/>
<path d="M1045.2 315.559C1048.84 315.048 1052.4 314.93 1055.97 314.863C1058.25 314.821 1060.53 314.855 1063.65 314.855C1064.25 312.614 1065.11 309.364 1066.2 305.745C1066.43 305.376 1066.5 305.506 1066.47 305.8C1066.49 306.422 1066.6 306.733 1066.77 307.024C1068.04 313.125 1069.32 319.225 1070.6 325.687C1070.07 328.684 1069.16 331.305 1069.06 333.958C1068.79 340.738 1068.5 341.21 1061.6 340.955C1059.3 340.87 1057.02 340.403 1054.31 340.072C1053.36 339.23 1052.62 338.493 1052.32 337.609C1049.88 330.413 1047.52 323.189 1045.2 315.559Z" fill="#8FB626"/>
<path d="M805.417 178.778C795.91 178.374 786.616 177.755 777.336 176.968C773.337 176.629 769.367 175.942 765.323 174.845C768.201 170.524 771.139 166.77 774.077 163.017C782.454 163.012 790.834 162.884 799.207 163.081C801.567 163.136 803.904 164.142 806.601 164.852C806.512 169.493 806.074 173.994 805.417 178.778Z" fill="#3E732F"/>
<path d="M572.146 130.38C570.94 131.336 569.76 132.496 568.563 132.514C558.756 132.662 548.947 132.598 538.936 132.598C538.624 130.888 538.399 129.656 538.024 128.162C540.897 123.622 543.581 119.044 547.038 115.153C550.515 111.24 555.094 109.798 559.825 113.388C565.533 117.719 572.179 121.449 572.146 130.38Z" fill="#286033"/>
<path d="M867.575 145.94C868.186 151.586 868.592 157.305 868.718 163.03C868.901 171.288 869.221 179.569 868.776 187.802C868.601 191.028 866.517 194.151 865.161 197.635C852.765 184.138 850.624 157.482 867.575 145.94Z" fill="#5F8F2C"/>
<path d="M272.633 186.082C273.365 187.55 274.369 189.143 274.378 190.742C274.532 216.486 274.551 242.231 274.634 267.976C274.64 269.963 274.889 271.95 275.035 274.324C272.817 273.31 270.588 271.908 268.234 269.808C268.403 266.81 268.941 264.512 268.951 262.211C269.022 245.613 269.166 229.012 268.884 212.419C268.79 206.899 267.515 201.4 266.78 195.891C267.984 193.733 269.187 191.575 270.86 189.117C271.554 188.214 271.779 187.612 272.003 187.01C272.083 186.707 272.229 186.44 272.633 186.082Z" fill="#41772F"/>
<path d="M1016 195.001C1013.48 194.45 1010.99 193.665 1008.44 193.398C1003.79 192.909 999.103 192.696 994.427 192.427C992.175 192.298 989.916 192.302 987.287 192.096C989.01 185.975 991.107 180.003 993.627 174.006C996.236 174.712 998.429 176.08 1000.61 176.057C1007.38 175.984 1014.15 175.384 1020.92 175.383C1019.28 182.186 1017.64 188.594 1016 195.001Z" fill="#4C7E2D"/>
<path d="M677.925 201.966C681.725 197.74 685.525 193.513 689.907 189.058C697.576 188.974 704.68 188.866 711.741 189.365C715.525 189.632 719.235 190.945 722.702 191.99C718.98 195.845 715.536 199.496 711.816 203.001C700.267 205.141 689.143 201.782 677.925 201.966Z" fill="#53852D"/>
<path d="M677.627 202.15C689.143 201.782 700.267 205.141 711.627 203.277C708.856 208.137 705.999 212.576 703.141 217.016C695.9 217.342 688.644 218.076 681.425 217.812C678.117 217.691 674.881 215.607 671.326 214.219C673.136 210.128 675.233 206.231 677.627 202.15Z" fill="#5F8F2C"/>
<path d="M722.979 191.785C719.235 190.945 715.525 189.632 711.74 189.365C704.679 188.866 697.575 188.974 690.192 188.892C696.083 183.741 702.272 178.528 708.769 173.169C715.318 178.23 722.708 176.954 729.909 176.704C733.534 176.578 737.156 176.396 741.082 176.594C735.249 181.894 729.114 186.839 722.979 191.785Z" fill="#4A7C2E"/>
<path d="M899.429 250.076C898.977 239.036 898.908 227.958 898.864 216.881C898.834 209.43 898.838 201.979 898.964 194.166C901.304 195.687 903.506 197.57 905.61 199.934C905.341 201.511 904.803 203.47 905.054 203.577C909.186 205.338 909.034 208.856 909.011 212.41C908.97 218.71 909.514 225.066 908.849 231.296C908.21 237.287 906.35 243.149 905.027 249.067C903.292 249.39 901.558 249.714 899.429 250.076Z" fill="#8CB227"/>
<path d="M531.954 264.646C521.493 264.776 511.235 264.825 500.989 264.48C498.284 264.389 495.619 263.082 492.623 262.187C493.206 257.638 494.102 253.236 495.07 248.42C502.109 254.82 510.908 252.952 519.243 252.941C524.598 252.934 529.952 252.368 535.7 252.041C534.783 256.16 533.472 260.289 531.954 264.646Z" fill="#749F29"/>
<path d="M781.051 269.915C783.077 277.269 786.765 283.025 796.014 283.684C790.458 287.129 786.251 290.796 781.368 292.383C778.26 293.394 773.345 292.402 770.657 290.403C765.022 286.212 759.441 281.42 758.397 273.416C764.125 273.015 769.447 273.289 774.707 272.845C776.889 272.66 778.94 270.938 781.051 269.915Z" fill="#A2C425"/>
<path d="M1020.92 174.988C1014.15 175.384 1007.38 175.984 1000.61 176.057C998.428 176.08 996.236 174.712 993.775 173.666C995.034 168.496 996.568 163.64 998.18 158.4C1007.06 158.372 1015.87 158.727 1025.13 159.529C1024.03 164.98 1022.48 169.984 1020.92 174.988Z" fill="#47792F"/>
<path d="M993.368 298.75C989.31 294.584 984.099 294.195 978.809 294.005C971.904 293.758 965 293.487 957.711 293.128C957.932 289.956 958.537 286.883 959.23 283.413C960.233 282.191 961.029 281.111 962.097 280.609C963.289 280.048 965.596 279.386 965.926 279.844C969.249 284.451 974.032 282.763 978.306 282.958C982.625 283.155 986.96 283.001 990.844 283.001C993.36 281.675 995.847 280.363 998.718 279.043C997.701 281.982 995.871 284.811 995.019 287.909C994.087 291.3 994.059 294.94 993.368 298.75Z" fill="#80A828"/>
<path d="M905.418 249.044C906.35 243.148 908.21 237.287 908.849 231.296C909.514 225.066 908.97 218.71 909.011 212.41C909.034 208.856 909.186 205.338 905.054 203.577C904.803 203.47 905.341 201.511 905.747 200.24C912.238 207.27 917.995 214.754 921.195 223.946C925.062 235.055 917.648 247.295 905.418 249.044Z" fill="#94BA26"/>
<path d="M926.128 35.3821C926.474 35.1989 926.893 35.3795 926.951 35.6406C929.136 45.4118 927.545 55.1672 927.936 64.9339C927.406 65.0349 926.876 65.136 926.346 65.237C925.656 64.2262 924.859 63.2711 924.29 62.1959C919.544 53.2265 914.782 44.2645 910.145 35.238C907.768 30.6094 903.621 31.9075 900.016 32.2254C896.091 32.5714 897.046 36.0544 897.029 38.5418C896.949 50.2034 897.004 61.866 896.993 73.5282C896.99 76.3784 897.154 78.9852 901.066 78.9501C905.037 78.9144 905.032 76.1732 904.994 73.4027C904.888 65.5788 904.678 57.7555 904.665 49.9317C904.662 47.911 905.234 45.8894 905.542 43.8682C906.02 43.782 906.498 43.6958 906.977 43.6097C912.808 55.3203 918.638 67.0309 924.432 79.1208C918.579 69.3725 912.763 59.245 906.921 49.073C906.921 57.9428 906.687 66.8697 907.012 75.7762C907.196 80.8536 904.326 80.8751 900.692 80.9962C896.924 81.1217 894.905 80.4965 895.006 75.883C895.303 62.2328 895.208 48.5705 895.036 34.9157C894.991 31.2388 896.345 30.5826 899.848 29.881C909.683 27.912 912.289 34.973 915.737 41.3005C918.882 47.0714 922.013 52.8495 926.032 58.6098C926.032 51.001 926.032 43.3922 926.128 35.3821Z" fill="#D6703F"/>
<path d="M303.343 212.887C302.307 211.373 300.876 209.59 300.86 207.795C300.734 193.912 300.903 180.027 300.906 166.142C300.906 164.855 300.387 163.568 299.946 161.848C309.796 164.428 315.047 174.067 313.237 183.252C311.907 190.002 308.611 196.354 306.341 202.936C305.25 206.1 304.505 209.383 303.343 212.887Z" fill="#85AD27"/>
<path d="M158.036 251.668C153.608 250.108 149.18 248.549 144.432 246.488C144.841 240.146 146.009 234.315 146.144 228.461C146.237 224.431 144.898 220.368 144.199 216.32C149.342 219.328 154.485 222.337 159.827 226.06C160.423 235.158 162.902 243.707 158.036 251.668Z" fill="#56872D"/>
<path d="M266.57 196.139C267.515 201.4 268.79 206.899 268.884 212.419C269.166 229.012 269.022 245.613 268.951 262.211C268.941 264.512 268.402 266.81 268.064 269.522C266.037 268.197 264.055 266.458 262.187 264.03C262.532 261.547 262.953 259.755 262.961 257.961C263.016 244.722 263.062 231.482 262.94 218.244C262.906 214.486 262.307 210.734 261.967 206.979C262.332 205.536 262.697 204.093 263.298 202.143C263.709 201.435 263.856 201.214 263.976 200.975C264.771 199.446 265.566 197.916 266.57 196.139Z" fill="#346E30"/>
<path d="M398.289 177.813C394.432 175.158 394.858 171.623 395.223 167.459C395.792 160.956 394.951 154.337 394.932 147.767C394.928 146.38 395.889 144.99 396.668 143.432C399.024 141.834 401.119 140.406 403.845 139.069C408.171 139.008 409.278 140.957 409.023 144.385C408.584 150.276 408.344 156.181 408.02 162.08C406.296 164.098 404.251 165.927 402.928 168.18C401.181 171.154 400.002 174.459 398.289 177.813Z" fill="#69962A"/>
<path d="M886.225 172.726C885.772 171.9 885.233 170.784 885.294 169.701C885.794 160.837 886.461 151.982 886.956 143.118C887.164 139.395 885.823 136.594 881.288 135.957C882.42 134.912 883.929 133.92 886.075 132.817C890.478 131.419 894.246 130.129 898.012 129.319C898.359 139.591 898.709 149.384 899.058 159.177C899.033 159.502 898.883 159.751 898.048 160.031C896.691 160.847 895.893 161.559 895.095 162.271C892.203 165.664 889.31 169.057 886.225 172.726Z" fill="#80A828"/>
<path d="M166.037 312.283C171.426 311.576 176.814 310.869 182.776 310.533C186.711 313.582 188.175 316.841 187.064 321.231C186.163 324.795 185.688 328.467 185.024 332.091C181.113 332.367 177.199 332.901 173.292 332.851C168.839 332.795 164.393 332.217 159.709 331.51C160.523 330.777 161.61 329.998 162.614 330.093C167.433 330.549 169.092 327.715 169.527 323.674C169.838 320.779 169.846 317.85 169.987 314.976C168.663 314.073 167.35 313.178 166.037 312.283Z" fill="#69962A"/>
<path d="M158.397 251.766C162.902 243.707 160.423 235.158 160.031 226.324C164.215 228.064 168.394 230.255 172.814 233.09C176.466 239.439 176.232 245.79 175.857 252.015C175.715 254.371 174.017 256.633 173.028 258.938C168.272 256.58 163.515 254.222 158.397 251.766Z" fill="#62922B"/>
<path d="M753.287 227.487C755.115 229.744 757.062 231.267 760.614 229.743C762.096 229.107 764.192 230.091 765.973 229.936C772.313 229.387 778.637 228.664 785.337 227.874C785.788 228.096 785.868 228.452 785.931 229.157C785.913 229.507 785.919 229.666 785.919 229.666C785.178 232.942 784.437 236.218 783.06 239.868C772.38 243.677 762.377 241.684 752.371 240.008C752.644 235.982 752.917 231.957 753.287 227.487Z" fill="#79A329"/>
<path d="M144.034 216.058C144.898 220.368 146.237 224.431 146.144 228.461C146.009 234.315 144.84 240.146 144.071 246.378C140.933 245.828 137.837 244.887 134.382 243.823C133.935 233.517 133.847 223.334 133.762 213.152C133.752 212.011 133.764 210.869 133.878 209.385C137.284 211.293 140.577 213.545 144.034 216.058Z" fill="#4C7E2D"/>
<path d="M261.718 207.221C262.307 210.734 262.906 214.486 262.94 218.244C263.062 231.482 263.016 244.722 262.961 257.961C262.953 259.755 262.532 261.547 262.099 263.704C255.621 259.771 255.951 252.55 255.49 246.524C254.614 235.065 253.864 223.304 259.042 212.343C259.818 210.7 260.658 209.089 261.718 207.221Z" fill="#296031"/>
<path d="M783.739 150.955C780.311 151.153 776.974 150.922 773.634 150.842C767.012 150.686 760.381 150.758 753.771 150.411C751.959 150.316 750.206 149.072 748.173 148.105C756.237 141.133 765.945 137.835 776.429 137.218C781.519 136.918 785.485 144.711 783.739 150.955Z" fill="#255E33"/>
<path d="M820.388 40.0013C823.678 39.5025 827.366 39.58 830.901 38.8814C832.572 38.5511 833.949 36.7346 835.46 35.5915C833.963 34.3837 832.525 32.229 830.96 32.1335C824.505 31.7397 818.012 32.009 811.533 31.9545C808.417 31.9283 806.976 33.3309 806.984 36.4609C807.014 48.9207 807.014 61.3807 806.965 73.8405C806.951 77.3427 808.483 79.0704 812.049 79.0451C818.528 78.9991 825.019 79.2512 831.477 78.88C833.008 78.792 834.426 76.729 835.896 75.5744C834.386 74.3913 832.997 72.4474 831.341 72.1839C827.937 71.6422 824.384 71.8708 820.902 72.0207C816.851 72.195 814.816 70.8511 815.964 66.4844C816.494 64.4689 816.929 62.4285 817.722 60.2058C818.036 63.1499 818.036 66.2875 818.036 70.0773C823.377 70.0773 828.487 70.2271 833.583 70.032C838.018 69.8622 838.785 72.607 838.959 76.0408C839.147 79.7345 837.128 81.0041 833.709 80.9779C825.544 80.9153 817.378 80.8761 809.215 80.9898C806.288 81.0306 804.99 80.1037 805.014 76.9895C805.124 62.4932 805.06 47.9957 805.134 33.4989C805.141 32.2542 805.706 31.0124 805.952 30.0141C816.435 30.0141 826.493 30.0141 836.173 30.0141C836.643 30.626 836.81 30.7439 836.828 30.8815C838.141 40.8043 838.05 40.952 828.077 40.9032C825.624 40.8912 823.174 40.4845 820.388 40.0013Z" fill="#CD6E42"/>
<path d="M93.638 171.184C94.2801 171.273 94.9715 171.572 94.98 171.89C95.3268 184.806 95.7546 197.723 95.7792 210.641C95.7839 213.092 94.1594 215.546 93.1793 218.312C84.954 209.523 85.0821 198.367 86.5198 187.514C87.2582 181.939 90.9899 176.762 93.638 171.184Z" fill="#255E33"/>
<path d="M752.271 240.433C762.377 241.684 772.38 243.677 782.809 240.152C782.334 243.573 781.475 247.084 779.979 250.914C773.837 251.819 768.314 252.286 762.832 253.048C760.51 253.37 758.275 254.311 755.655 254.983C754.848 255.003 754.387 255.012 753.925 255.02C753.34 250.299 752.755 245.579 752.271 240.433Z" fill="#80A828"/>
<path d="M173.216 259.226C174.016 256.633 175.715 254.371 175.857 252.015C176.232 245.79 176.466 239.439 173.045 233.357C177.204 235.625 181.372 238.268 185.797 241.567C187.038 246.465 188.06 250.7 188.987 254.956C189.335 256.552 189.825 258.247 189.603 259.805C189.297 261.957 188.377 264.02 187.721 266.122C182.949 263.919 178.177 261.716 173.216 259.226Z" fill="#6F9B29"/>
<path d="M408.45 162.051C408.343 156.181 408.583 150.276 409.022 144.385C409.278 140.957 408.171 139.008 404.199 139.003C407.799 133.925 413.531 133.081 419.527 131.912C420.084 140.195 420.098 148.498 420.444 156.788C420.646 161.608 415.823 158.877 414.251 161.44C412.321 161.816 410.6 161.919 408.45 162.051Z" fill="#79A329"/>
<path d="M209.669 303.349C212.851 307.033 213.501 311.102 212.546 315.721C212.274 317.036 213.793 318.722 214.55 320.366C214.09 321.424 213.514 322.75 212.877 324.45C208.239 326.573 203.661 328.322 198.729 329.586C198.84 322.043 200.881 314.808 196.027 308.353C197.227 308.27 198.427 308.186 200.187 307.989C200.88 307.74 200.966 307.58 201.007 307.396C203.773 306.069 206.539 304.742 209.669 303.349Z" fill="#80A828"/>
<path d="M165.632 312.349C167.35 313.178 168.663 314.074 169.987 314.976C169.845 317.851 169.838 320.779 169.526 323.674C169.092 327.715 167.433 330.549 162.614 330.093C161.61 329.998 160.523 330.777 159.254 331.434C155.206 331.34 151.378 330.966 147.566 330.144C152.573 328.931 154.291 326.623 153.516 321.159C152.968 317.294 152.04 315.909 148.34 315.857C147.163 315.84 145.999 314.828 144.829 314.271C151.628 313.652 158.428 313.034 165.632 312.349Z" fill="#5F8F2C"/>
<path d="M918.939 145.758C915.576 147.838 912.213 149.918 908.29 151.703C907.672 147.062 907.793 142.705 907.505 138.375C907.227 134.201 906.527 130.054 906.276 125.68C909.689 124.317 912.838 123.168 916.113 122.333C916.511 124.716 916.755 126.79 917.065 128.854C917.632 132.619 918.238 136.377 919 141.236C918.998 141.243 918.499 142.622 918.103 144.228C918.449 144.89 918.694 145.324 918.939 145.758Z" fill="#94BA26"/>
<path d="M753.965 255.444C754.387 255.012 754.848 255.003 755.658 255.405C755.591 260.26 757.513 262.087 762.06 262.112C764.927 262.129 767.786 263.314 770.654 263.952C771.111 264.054 771.595 264.035 772.199 264.082C772.503 263 772.784 261.997 773.036 261.099C774.292 261.478 775.275 261.774 775.356 261.799C776.845 259.812 777.899 258.406 778.952 257.001C779.645 261.033 780.338 265.065 781.041 269.506C778.94 270.938 776.889 272.66 774.707 272.845C769.447 273.289 764.126 273.015 758.353 273.039C756.586 267.321 755.295 261.594 753.965 255.444Z" fill="#94BA26"/>
<path d="M865.004 61.2613C861.199 60.4787 859.871 62.1717 860.006 65.8675C860.18 70.6607 860.048 75.4652 860.048 80.5966C856.037 80.5966 852.46 80.5966 848.608 80.5966C848.414 79.7371 848.026 78.8072 848.022 77.8757C847.958 63.3824 848.001 48.8884 847.876 34.3958C847.848 31.1773 848.951 29.9257 852.253 30.0283C857.647 30.1961 863.053 29.9419 868.454 29.944C879.278 29.9481 888.166 37.4413 882.861 50.6645C882.393 50.9502 881.974 50.9535 882.025 50.5531C885.204 39.9208 879.227 33.0843 871.657 32.34C865.763 31.7604 859.756 31.8704 853.843 32.2842C852.485 32.3791 850.241 34.9517 850.207 36.4258C849.91 49.2018 849.908 61.9898 850.182 74.7664C850.213 76.1809 852.302 78.3426 853.821 78.7619C856.618 79.5337 858.002 77.5974 858.009 74.7371C858.018 71.2521 857.801 67.7294 858.233 64.2924C858.72 60.4148 860.674 58.0316 865.053 60.4071C865.024 60.8816 865.014 61.0715 865.004 61.2613Z" fill="#D6703F"/>
<path d="M195.649 308.277C200.881 314.808 198.841 322.043 198.295 329.58C195.297 330.666 192.381 331.273 188.973 331.869C188.481 331.86 188.355 331.893 188.355 331.893C187.521 331.928 186.688 331.962 185.439 332.044C185.688 328.467 186.163 324.795 187.064 321.231C188.175 316.841 186.711 313.582 183.21 310.62C183.292 310.277 183.513 310.217 184.146 310.14C184.558 310.122 184.699 310.083 184.699 310.083C185.198 310.035 185.697 309.988 186.709 309.998C187.497 309.824 187.773 309.593 188.049 309.363C189.091 309.259 190.132 309.156 191.757 308.954C192.587 308.738 192.799 308.575 192.975 308.366C193.74 308.311 194.505 308.256 195.649 308.277Z" fill="#79A329"/>
<path d="M906.013 125.895C906.527 130.054 907.227 134.2 907.505 138.375C907.793 142.705 907.672 147.062 907.935 151.739C907.706 152.843 907.273 153.615 906.393 154.461C905.622 154.491 905.394 154.632 905.261 154.958C903.409 156.305 901.557 157.653 899.382 159.089C898.708 149.384 898.359 139.591 898.24 129.119C899.65 127.604 900.83 126.767 902.01 125.929C902.01 125.929 901.954 125.957 902.358 125.935C903.845 125.907 904.929 125.901 906.013 125.895Z" fill="#8CB227"/>
<path d="M187.913 266.412C188.378 264.02 189.297 261.956 189.603 259.805C189.825 258.247 189.335 256.552 188.987 254.956C188.06 250.7 187.039 246.465 186.026 241.794C190.228 244.35 194.458 247.333 198.895 250.974C202.758 257.832 199.088 264.653 201.47 271.226C199.54 271.568 198.274 271.791 197.007 272.015C194.04 270.244 191.073 268.473 187.913 266.412Z" fill="#79A329"/>
<path d="M197.163 272.313C198.274 271.792 199.54 271.568 201.47 271.226C199.088 264.653 202.758 257.832 199.073 251.263C203.618 255.342 208.191 259.791 212.907 264.538C212.689 269.773 212.432 274.723 211.828 279.631C211.757 280.206 209.776 280.547 208.332 280.999C204.428 278.205 200.874 275.407 197.163 272.313Z" fill="#80A828"/>
<path d="M852.022 257.042C848.321 257.297 844.619 257.552 840.663 257.491C841.737 255.647 844.224 254.087 844.185 252.593C844.036 246.794 845.384 240.264 839.075 236.327C840.42 236.221 841.764 236.115 843.7 235.91C844.531 235.682 844.748 235.523 844.942 235.333C845.174 235.275 845.406 235.217 846.078 235.144C846.519 235.129 846.685 235.114 846.685 235.114C847.512 235.079 848.339 235.044 849.876 235.18C854.25 236.578 854.829 239.547 855.005 242.879C855.25 247.498 855.673 252.108 856.02 256.722C855.23 256.795 854.441 256.869 853.046 256.974C852.441 257.004 852.022 257.042 852.022 257.042Z" fill="#52832D"/>
<path d="M874.951 231.191C875.417 231.169 875.883 231.148 876.687 231.652C877.067 236.12 876.542 240.173 877.297 243.973C878.156 248.305 877.156 251.321 873.626 253.697C873.626 253.697 873.485 254.064 873.075 254.084C872.123 254.322 871.581 254.538 871.04 254.755C869.22 254.792 867.4 254.83 865.267 254.341C865.234 248.104 865.684 242.393 865.669 236.684C865.666 235.333 864.102 233.985 863.255 232.636C863.255 232.636 863.492 232.458 863.819 232.536C864.44 232.547 864.715 232.434 864.971 232.275C866.349 232.195 867.728 232.114 869.893 232.015C872.104 231.728 873.528 231.459 874.951 231.191Z" fill="#69982B"/>
<path d="M144.499 314.228C145.999 314.828 147.163 315.84 148.341 315.857C152.04 315.909 152.968 317.294 153.516 321.159C154.291 326.623 152.573 328.931 147.262 329.886C143.539 329.798 140.138 329.522 136.374 328.604C135.685 323.739 135.357 319.516 135.029 315.292C138.076 314.923 141.122 314.554 144.499 314.228Z" fill="#4E812E"/>
<path d="M862.874 232.725C864.102 233.985 865.666 235.333 865.67 236.684C865.684 242.393 865.234 248.104 864.886 254.278C862.133 255.421 859.448 256.101 856.392 256.751C855.674 252.108 855.25 247.498 855.006 242.879C854.83 239.547 854.25 236.578 850.29 235.156C851.406 234.649 852.819 234.336 854.785 233.922C855.561 233.688 855.762 233.527 855.94 233.336C858.124 233.162 860.308 232.988 862.874 232.725Z" fill="#5C8C2D"/>
<path d="M874.021 253.781C877.156 251.321 878.156 248.305 877.297 243.973C876.542 240.173 877.067 236.12 877.03 231.731C879.444 231.16 881.855 231.036 884.648 230.995C889.592 237.28 888.276 244.086 886.894 251.323C882.623 252.466 878.519 253.166 874.021 253.781Z" fill="#749F29"/>
<path d="M316.153 128.397C317.824 135.454 316.683 137.994 310.367 141.277C303.955 144.61 299.253 144.047 295.085 139.42C291.818 135.794 288.55 132.156 290.677 126.37C291.962 126.787 292.914 127.481 293.977 128.473C295.188 129.941 296.288 131.112 297.627 132.559C300.265 133.347 302.664 133.858 305.402 134.262C306.188 133.999 306.634 133.843 307.387 133.714C308.469 133.204 309.246 132.668 310.334 132.08C311.142 131.7 311.639 131.371 312.343 130.98C312.824 130.776 312.997 130.555 313.373 130.189C314.502 129.548 315.328 128.972 316.153 128.397Z" fill="#312E27"/>
<path d="M838.716 236.372C845.384 240.264 844.036 246.794 844.185 252.593C844.224 254.087 841.737 255.647 840.232 257.438C837.676 257.733 835.298 257.766 832.53 257.324C832.533 250.672 835.104 244.485 832.047 238.327C834.15 237.69 836.254 237.054 838.716 236.372Z" fill="#47792F"/>
<path d="M779.046 256.624C777.898 258.406 776.845 259.812 775.356 261.799C775.275 261.774 774.292 261.478 773.035 261.099C772.784 261.996 772.502 263 772.199 264.082C771.595 264.035 771.111 264.054 770.654 263.952C767.786 263.314 764.927 262.129 762.06 262.112C757.513 262.087 755.591 260.26 756.003 255.393C758.275 254.311 760.51 253.37 762.831 253.048C768.314 252.286 773.837 251.819 779.719 251.13C779.776 252.768 779.458 254.507 779.046 256.624Z" fill="#8CB227"/>
<path d="M825.001 257.501C819.781 257.046 814.553 256.667 809.346 256.096C807.616 255.906 805.939 255.227 804.238 254.772C804.979 252.757 805.128 249.866 806.571 248.892C810.896 245.974 815.727 243.806 820.798 241.68C821.425 244.141 822.141 246.384 821.695 248.367C820.81 252.303 822.005 255.142 825.001 257.501Z" fill="#296031"/>
<path d="M825.434 257.603C822.006 255.142 820.81 252.303 821.695 248.367C822.141 246.384 821.425 244.141 821.15 241.643C821.534 241.194 822.002 241.118 822.934 240.987C823.397 240.933 823.78 240.682 823.78 240.682C826.288 239.932 828.795 239.181 831.675 238.379C835.104 244.485 832.533 250.672 832.093 257.235C829.987 257.65 827.927 257.678 825.434 257.603Z" fill="#3C7130"/>
<path d="M342.114 226.299C345.469 227.906 345.975 230.629 345.574 234.15C345.07 238.58 345.34 243.095 345.202 247.571C345.143 249.508 344.546 251.494 344.835 253.358C345.152 255.397 346.209 257.321 346.982 259.628C343.986 257.202 340.805 254.582 337.996 251.611C336.977 250.534 336.121 248.45 336.431 247.113C338.027 240.226 340.026 233.433 342.114 226.299Z" fill="#255E33"/>
<path d="M308.042 246.364C308.254 246.303 308.467 246.241 309.11 246.195C309.542 246.212 309.736 246.123 309.736 246.123C314.285 245.008 318.833 243.893 324.337 242.544C323.638 245.205 323.471 246.831 322.804 248.215C319.195 255.709 315.887 263.529 306.558 265.821C313.026 258.396 313.497 252.789 308.042 246.364Z" fill="#9BBE25"/>
<path d="M134.672 315.34C135.357 319.516 135.684 323.739 136.012 328.407C131.304 328.252 126.596 327.652 121.171 326.902C118.441 324.261 116.428 321.77 114.416 319.278C114.863 319.281 115.311 319.284 116.473 319.539C120.499 321.243 123.329 320.211 125.948 318.092C128.738 317.191 131.527 316.289 134.672 315.34Z" fill="#41772F"/>
<path d="M305.064 134.37C302.664 133.858 300.265 133.347 297.926 132.207C299.483 123.105 300.165 114.662 297.111 106.348C298.851 105.927 300.591 105.506 302.844 105.501C303.795 107.145 304.581 108.363 304.617 109.602C304.856 117.856 304.934 126.113 305.064 134.37Z" fill="#5C8C2D"/>
<path d="M307.67 246.279C313.497 252.789 313.026 258.396 306.194 265.924C305.343 266.603 304.721 267.028 303.938 267.71C303.52 262.992 303.479 257.992 302.906 253.053C302.66 250.938 301.308 248.952 300.269 246.629C302.485 246.298 304.892 246.246 307.67 246.279Z" fill="#8FB626"/>
<path d="M906.276 125.68C904.929 125.901 903.845 125.907 902.356 125.904C911.886 118.845 922.555 118.319 934.661 122.88C934.837 127.391 936.567 133.122 934.816 137.443C932.988 141.955 927.967 145.442 921.396 144.01C921.001 143.994 920.952 143.925 921.106 143.657C926.956 141.673 932.815 140.715 933.011 132.415C933.135 127.146 932.091 123.599 926.813 122.611C923.291 121.952 919.602 122.185 915.987 122.019C912.838 123.168 909.689 124.317 906.276 125.68Z" fill="#A5C624"/>
<path d="M751.181 34.4432C751.839 35.9471 752.898 37.9068 752.927 39.8819C753.092 51.008 753.139 62.1401 752.946 73.2653C752.871 77.617 754.539 79.1924 758.815 79.0504C764.395 78.865 769.991 79.1279 775.769 79.44C768.427 80.0715 760.898 80.586 753.365 80.6608C752.592 80.6684 751.124 78.0512 751.111 76.6408C750.972 62.7307 751.074 48.8181 751.181 34.4432Z" fill="#E26F35"/>
<path d="M865.241 61.5052C865.014 61.0715 865.024 60.8816 865.39 60.4743C867.684 62.3381 870.154 64.1416 871.422 66.5725C872.927 69.4582 873.276 72.9246 874.346 76.0645C875.569 79.6568 878.697 79.3774 881.447 78.7979C884.919 78.066 883.369 75.429 882.684 73.6058C880.778 68.5365 878.511 63.6023 876.64 58.5214C876.246 57.4504 876.499 55.5892 877.222 54.7839C878.397 53.4771 880.208 52.742 881.817 51.8282C881.884 51.8909 882.018 52.0162 882.018 52.0162C880.612 53.5994 879.205 55.1827 878.513 55.9615C881.38 64.0338 884.165 71.8774 887.368 80.8943C882.565 80.8943 879.229 81.3814 876.157 80.6911C874.595 80.3399 873.003 78.0681 872.317 76.3152C871.008 72.9681 870.607 69.2651 869.289 65.9229C868.643 64.2854 866.787 63.1252 865.241 61.5052Z" fill="#CD6E42"/>
<path d="M305.402 134.262C304.933 126.113 304.855 117.856 304.617 109.602C304.581 108.363 303.795 107.145 303.219 105.609C304.721 105.357 306.359 105.413 308.056 106.298C309.06 116.03 310.315 124.946 307.08 133.687C306.634 133.843 306.187 133.999 305.402 134.262Z" fill="#749F29"/>
<path d="M316.189 127.995C315.328 128.972 314.502 129.548 313.314 129.763C312.808 125.802 312.79 122.191 312.489 118.604C312.107 114.07 313.642 108.785 308.027 106.095C316.973 107.497 320.609 114.594 317.368 124.34C317.005 125.43 316.607 126.509 316.189 127.995Z" fill="#98BD25"/>
<path d="M296.796 106.402C300.165 114.662 299.483 123.105 297.687 131.93C296.288 131.112 295.188 129.941 294.011 128.009C293.656 121.546 296.163 115.542 292.097 110.249C293.558 108.985 295.019 107.721 296.796 106.402Z" fill="#47792F"/>
<path d="M733.336 74.9049C733.428 73.7955 733.593 72.4009 734.263 71.3186C741.57 59.5066 740.781 48.0875 732.801 36.9435C732.519 36.5501 732.408 36.0349 732.135 35.2332C740.574 40.9088 741.762 49.7796 740.705 59.0347C740.045 64.8111 738.929 70.8485 733.336 74.9049Z" fill="#CD6E42"/>
<path d="M114.103 319.201C116.429 321.77 118.441 324.261 120.766 326.916C119.708 327.275 117.589 328.123 117.094 327.556C114.09 324.11 110.18 325.288 106.541 324.857C104.472 324.611 102.479 323.72 100.451 323.12C100.49 322.493 100.529 321.865 100.567 321.238C104.975 320.533 109.382 319.828 114.103 319.201Z" fill="#306731"/>
<path d="M308.031 106.118C313.641 108.785 312.107 114.07 312.488 118.604C312.79 122.191 312.807 125.802 313.009 129.829C312.997 130.555 312.824 130.776 312.056 131.067C311.049 131.522 310.536 131.827 310.023 132.132C309.246 132.668 308.469 133.204 307.386 133.714C310.314 124.946 309.06 116.03 308.059 106.649C308.005 106.171 308.036 106.14 308.031 106.118Z" fill="#8CB227"/>
<path d="M698.701 37.0912C698.681 38.2284 698.612 39.6629 697.976 40.7714C691.759 51.6051 693.046 62.1139 699.12 72.483C699.451 73.0477 699.592 73.7238 699.887 74.7031C691.503 69.6796 690.007 52.5609 694.654 43.0847C695.666 41.0213 697.132 39.1806 698.701 37.0912Z" fill="#CD6E42"/>
<path d="M700.062 75.3622C706.925 77.901 713.846 81.3136 721.718 78.9342C725.306 77.8498 728.781 76.391 732.676 75.0653C725.797 83.2396 708.334 84.2548 700.062 75.3622Z" fill="#CD6E42"/>
<path d="M934.986 78C935.007 65.6191 935.029 53.2381 935.348 40.4113C936.019 39.9924 936.393 40.0193 936.766 40.0463C936.841 51.7223 936.915 63.3983 936.722 75.7386C935.964 76.9353 935.475 77.4676 934.986 78Z" fill="#E26F35"/>
<path d="M291.801 110.434C296.163 115.542 293.656 121.546 293.901 127.711C292.914 127.481 291.962 126.787 290.77 125.928C289.305 120.614 287.965 115.459 291.801 110.434Z" fill="#306731"/>
<path d="M818.478 59.9939C821.428 59.3796 824.82 58.3796 828.264 58.1441C834.197 57.7383 835.259 56.153 832.305 50.4987C833.17 50.1494 834.287 50.0528 835.404 49.9561C835.573 52.6784 836.118 55.4619 835.69 58.0872C835.555 58.9184 832.85 59.7497 831.276 59.8467C827.179 60.0991 823.056 59.9445 818.478 59.9939Z" fill="#CD6E42"/>
<path d="M726.882 31.6503C721.505 31.9213 715.848 31.4483 710.319 32.0863C707.004 32.4688 703.889 34.5872 700.315 35.969C707.284 28.4834 717.061 26.7856 726.882 31.6503Z" fill="#CD6E42"/>
<path d="M936.87 39.6383C936.392 40.0193 936.019 39.9923 935.369 39.9373C935.864 32.1681 934.624 31.084 926.61 32.9214C926.74 32.0598 927.112 30.9879 927.799 30.1866C928.082 29.8557 929.044 30.1114 929.697 30.0908C938.477 29.8139 939.06 30.5453 936.87 39.6383Z" fill="#D6703F"/>
<path d="M901.677 125.967C900.83 126.767 899.65 127.604 898.242 128.641C894.246 130.129 890.478 131.419 886.423 132.795C891.205 130.589 896.275 128.297 901.677 125.967Z" fill="#A5C624"/>
<path d="M824.663 49.9945C822.332 50.2035 818.328 51.2266 817.377 49.9592C815.279 47.1623 814.744 43.2133 818.26 39.9745C818.421 40.3115 818.137 40.7504 818.076 41.2182C817.096 48.7857 817.502 49.3279 824.663 49.9945Z" fill="#CD6E42"/>
<path d="M934.626 78.1972C935.475 77.4676 935.964 76.9352 936.635 76.2C937.748 79.6445 936.3 81.2664 932.591 80.9464C930.05 80.7271 927.511 80.4908 924.728 79.9438C927.745 79.2152 931.006 78.8048 934.626 78.1972Z" fill="#D6703F"/>
<path d="M125.668 317.957C123.329 320.211 120.499 321.243 116.786 319.664C119.386 318.965 122.387 318.393 125.668 317.957Z" fill="#306731"/>
<path d="M1076.3 121.998C1076.15 120.209 1076.31 118.426 1076.62 116.377C1077.12 117.835 1077.47 119.558 1077.8 121.659C1077.39 122.026 1076.99 122.016 1076.3 121.998Z" fill="#306731"/>
<path d="M1076.65 111.683C1075.78 110.655 1074.88 109.315 1073.96 107.624C1074.84 108.639 1075.73 110.005 1076.65 111.683Z" fill="#306731"/>
<path d="M872.495 204.585C873.839 203.461 875.371 201.334 876.91 204.707C877 205.001 877 205 876.681 205.033C875.575 205.368 874.788 205.671 874.002 205.974C873.555 205.592 873.109 205.211 872.495 204.585Z" fill="#749F29"/>
<path d="M731.988 34.6205C730.512 34.1327 728.914 33.3196 727.183 32.1973C728.655 32.6905 730.262 33.4929 731.988 34.6205Z" fill="#CD6E42"/>
<path d="M874.132 206.264C874.788 205.671 875.575 205.368 876.681 205.032C876.988 205.777 876.977 206.556 876.95 207.724C876.044 207.593 875.153 207.074 874.132 206.264Z" fill="#69982B"/>
<path d="M126.661 138.098C126.18 138.938 125.394 139.874 124.298 140.904C124.777 140.064 125.567 139.129 126.661 138.098Z" fill="#4A7C2E"/>
<path d="M895.426 162.216C895.892 161.559 896.69 160.847 897.833 160.097C897.371 160.759 896.564 161.461 895.426 162.216Z" fill="#8CB227"/>
<path d="M874.577 231.117C873.528 231.459 872.104 231.728 870.308 231.985C871.357 231.663 872.78 231.353 874.577 231.117Z" fill="#5C8C2D"/>
<path d="M271.764 187.18C271.779 187.612 271.554 188.214 271.104 188.893C271.094 188.429 271.309 187.89 271.764 187.18Z" fill="#4E812E"/>
<path d="M1073.25 189.824C1073.13 189.399 1073.24 188.789 1073.54 188.085C1073.65 188.54 1073.56 189.09 1073.25 189.824Z" fill="#477B2D"/>
<path d="M919.218 145.713C918.694 145.324 918.449 144.89 918.471 144.222C919.476 143.967 920.214 143.946 920.952 143.925C920.952 143.925 921.001 143.994 921.026 144.028C920.533 144.598 920.015 145.133 919.218 145.713Z" fill="#A5C624"/>
<path d="M1066.08 97.6226C1065.71 97.3962 1065.29 96.8864 1064.97 96.17C1065.39 96.4221 1065.71 96.8807 1066.08 97.6226Z" fill="#2C6631"/>
<path d="M1067.94 99.6867C1067.46 99.4652 1066.87 98.9643 1066.17 98.1851C1066.65 98.4069 1067.24 98.907 1067.94 99.6867Z" fill="#2C6631"/>
<path d="M892.815 227.107C892.825 227.439 892.583 227.84 892.186 228.134C892.208 227.744 892.386 227.459 892.815 227.107Z" fill="#749F29"/>
<path d="M1071.13 346.514C1070.95 345.996 1070.98 345.285 1071.04 344.218C1071.16 344.681 1071.25 345.5 1071.13 346.514Z" fill="#8FB626"/>
<path d="M296.862 161.721C296.261 161.978 295.471 161.985 294.286 161.97C294.818 161.789 295.745 161.63 296.862 161.721Z" fill="#69982B"/>
<path d="M187.822 309.349C187.773 309.593 187.497 309.824 187.085 309.992C187.055 309.612 187.27 309.414 187.822 309.349Z" fill="#69962A"/>
<path d="M666.312 243.201C666.562 243.24 666.797 243.508 666.974 243.911C666.584 243.965 666.377 243.76 666.312 243.201Z" fill="#79A329"/>
<path d="M891.324 251.793C891.534 251.525 892.035 251.319 892.806 251.076C892.589 251.311 892.102 251.582 891.324 251.793Z" fill="#749F29"/>
<path d="M491.686 266.06C491.792 266.277 491.698 266.6 491.462 266.973C491.208 266.705 491.264 266.42 491.686 266.06Z" fill="#749F29"/>
<path d="M871.349 254.808C871.581 254.538 872.123 254.322 872.958 254.065C872.72 254.303 872.189 254.582 871.349 254.808Z" fill="#5C8C2D"/>
<path d="M962.729 271.178C962.818 271.516 962.668 272 962.382 272.7C962.328 272.385 962.409 271.854 962.729 271.178Z" fill="#709D29"/>
<path d="M987.272 318.784C987.16 318.409 987.32 317.939 987.615 317.259C987.681 317.596 987.612 318.143 987.272 318.784Z" fill="#85AD27"/>
<path d="M1040.2 299.324C1040.47 299.549 1040.67 300.071 1040.91 300.872C1040.67 300.642 1040.4 300.131 1040.2 299.324Z" fill="#79A329"/>
<path d="M353.785 185.18C353.837 185.506 353.664 185.999 353.353 186.716C353.331 186.409 353.445 185.879 353.785 185.18Z" fill="#306731"/>
<path d="M952.379 315.802C952.559 315.928 952.52 316.233 952.339 316.745C952.089 316.641 952.076 316.318 952.379 315.802Z" fill="#85AD27"/>
<path d="M263.796 201.085C263.856 201.214 263.708 201.435 263.399 201.783C263.257 201.624 263.375 201.379 263.796 201.085Z" fill="#296031"/>
<path d="M823.657 240.684C823.78 240.682 823.397 240.933 823.29 240.977C823.183 241.021 823.533 240.685 823.657 240.684Z" fill="#296031"/>
<path d="M630.316 238.142C630.351 238.149 630.257 238.209 630.241 238.233C630.226 238.256 630.282 238.134 630.316 238.142Z" fill="#709D29"/>
<path d="M642.218 219.843C642.119 219.671 642.252 219.474 642.548 219.176C642.749 219.357 642.662 219.605 642.218 219.843Z" fill="#56872D"/>
<path d="M517.794 316.732C517.568 316.746 517.527 316.516 517.662 316.161C517.726 316.056 517.865 316.507 517.794 316.732Z" fill="#8FB626"/>
<path d="M200.867 307.447C200.966 307.58 200.879 307.74 200.637 307.954C200.494 307.817 200.56 307.639 200.867 307.447Z" fill="#69962A"/>
<path d="M844.727 235.351C844.748 235.523 844.531 235.682 844.106 235.892C844.025 235.682 844.222 235.481 844.727 235.351Z" fill="#47792F"/>
<path d="M881.973 50.9535C881.973 50.9535 882.393 50.9501 882.603 50.9462C882.875 51.3034 882.756 51.5905 882.238 51.9098C882.018 52.0161 881.884 51.8909 881.878 51.6268C881.871 51.3627 881.973 50.9535 881.973 50.9535Z" fill="#CD6E42"/>
<path d="M846.682 235.024C846.685 235.114 846.519 235.129 846.436 235.123C846.354 235.116 846.443 234.892 846.443 234.892C846.443 234.892 846.678 234.933 846.682 235.024Z" fill="#47792F"/>
<path d="M786.017 229.672C785.919 229.666 785.913 229.507 785.934 229.431C785.955 229.355 786.188 229.435 786.188 229.435C786.188 229.435 786.114 229.678 786.017 229.672Z" fill="#6C992A"/>
<path d="M188.333 331.99C188.355 331.893 188.48 331.86 188.544 331.873C188.607 331.887 188.562 332.135 188.562 332.135C188.562 332.135 188.312 332.086 188.333 331.99Z" fill="#69962A"/>
<path d="M855.731 233.354C855.762 233.527 855.561 233.688 855.162 233.904C855.066 233.697 855.244 233.491 855.731 233.354Z" fill="#52832D"/>
<path d="M949.223 336.258C949.439 336.26 949.462 336.498 949.317 336.852C949.253 336.959 949.134 336.486 949.223 336.258Z" fill="#8FB626"/>
<path d="M864.731 232.221C864.715 232.434 864.44 232.547 863.922 232.642C863.851 232.327 864.115 232.159 864.731 232.221Z" fill="#5C8C2D"/>
<path d="M110.701 150.328C110.751 150.471 110.613 150.621 110.332 150.843C110.21 150.68 110.317 150.486 110.701 150.328Z" fill="#2C6631"/>
<path d="M94.7649 168.67C94.7903 168.696 94.7475 168.722 94.7492 168.733C94.7509 168.745 94.7394 168.643 94.7649 168.67Z" fill="#255E33"/>
<path d="M852.1 257.178C852.023 257.042 852.441 257.004 852.65 257.008C852.859 257.012 852.593 257.371 852.593 257.371C852.593 257.371 852.178 257.313 852.1 257.178Z" fill="#47792F"/>
<path d="M106.794 154.483C106.888 154.478 106.665 154.709 106.603 154.755C106.542 154.802 106.699 154.488 106.794 154.483Z" fill="#2C6631"/>
<path d="M905.517 154.942C905.394 154.632 905.623 154.491 906.081 154.604C906.067 154.757 905.919 154.842 905.517 154.942Z" fill="#94BA26"/>
<path d="M107.741 153.55C107.815 153.55 107.651 153.728 107.608 153.764C107.566 153.8 107.668 153.551 107.741 153.55Z" fill="#2C6631"/>
<path d="M297.365 272.709C297.297 272.502 297.45 272.351 297.773 272.155C297.937 272.376 297.818 272.595 297.365 272.709Z" fill="#69982B"/>
<path d="M108.773 152.5C108.877 152.48 108.624 152.76 108.555 152.82C108.485 152.879 108.668 152.52 108.773 152.5Z" fill="#2C6631"/>
<path d="M362.881 151.253C362.93 151.349 362.831 151.504 362.628 151.751C362.509 151.638 362.579 151.46 362.881 151.253Z" fill="#3C7130"/>
<path d="M184.724 309.973C184.699 310.083 184.557 310.122 184.488 310.1C184.419 310.078 184.472 309.799 184.472 309.799C184.472 309.799 184.749 309.864 184.724 309.973Z" fill="#69962A"/>
<path d="M745.643 148.68C745.755 148.672 745.409 148.905 745.317 148.956C745.225 149.007 745.531 148.688 745.643 148.68Z" fill="#255E33"/>
<path d="M1065.65 298.74C1065.43 298.776 1065.27 298.555 1065.09 298.11C1065.34 298.003 1065.56 298.202 1065.65 298.74Z" fill="#79A329"/>
<path d="M309.748 245.996C309.737 246.123 309.542 246.212 309.442 246.174C309.342 246.137 309.429 245.818 309.429 245.818C309.429 245.818 309.758 245.87 309.748 245.996Z" fill="#79A329"/>
<path d="M1066.82 306.763C1066.6 306.733 1066.49 306.422 1066.41 305.843C1066.54 305.896 1066.71 306.199 1066.82 306.763Z" fill="#85AD27"/>
<path d="M192.754 308.361C192.799 308.575 192.587 308.738 192.15 308.921C192.037 308.672 192.228 308.462 192.754 308.361Z" fill="#69962A"/>
<path d="M1078.11 124.844C1078.01 124.925 1077.97 124.537 1077.97 124.342C1078.23 124.285 1078.32 124.49 1078.11 124.844Z" fill="#306731"/>
<path d="M559.869 220.818C560.039 220.826 560.141 220.895 560.243 220.964C560.095 220.936 559.948 220.907 559.869 220.818Z" fill="#5D8E2C"/>
<path d="M777.137 69.1193C773.634 73.643 768.743 73.4353 764.005 72.4025C762.754 72.1297 761.233 69.5147 761.178 67.929C760.898 59.7967 761.042 51.6492 761.067 43.5071C761.078 39.8105 763.062 38.2301 766.676 37.9946C777.109 37.3148 784.007 43.3904 783.896 53.8305C783.847 58.4557 784.692 63.6575 779.383 66.9375C778.985 67.0009 778.854 66.8719 778.925 66.5084C782.839 60.2632 783.335 49.9867 779.995 45.4302C776.256 40.3276 771.043 38.802 763.45 40.69C763.45 50.6741 763.45 60.7011 763.45 71.8419C768.361 70.7748 772.645 69.844 776.98 68.9654C777.031 69.0176 777.137 69.1193 777.137 69.1193Z" fill="#D6703F"/>
<path d="M779.049 67.0665C778.625 67.707 778.137 68.2819 777.393 68.988C777.137 69.1193 777.032 69.0176 777.096 68.7028C777.725 67.8826 778.29 67.3772 778.854 66.8718C778.854 66.8718 778.985 67.0008 779.049 67.0665Z" fill="#D6703F"/>
<path d="M355.506 186.502C355.525 186.495 355.486 186.509 355.506 186.502Z" fill="#306731"/>
<path d="M736.068 202.613C736.122 202.23 736.266 202.141 736.66 202.003C738.139 202.456 739.369 202.958 740.599 203.461C739.889 204.184 739.179 204.907 738.469 205.629C737.699 204.722 736.929 203.815 736.068 202.613Z" fill="#56872D"/>
<path d="M724.225 217.032C724.1 217.149 723.979 217.173 723.858 217.197C723.982 217.111 724.106 217.025 724.225 217.032Z" fill="#62922B"/>
<path d="M988.498 190.498C988.516 190.492 988.479 190.505 988.498 190.498Z" fill="#56872D"/>
<path d="M921.106 143.657C920.214 143.946 919.476 143.967 918.369 143.995C918.499 142.622 918.998 141.243 919.001 141.235C918.239 136.377 917.632 132.619 917.065 128.854C916.755 126.79 916.511 124.716 916.113 122.333C919.602 122.185 923.291 121.952 926.813 122.611C932.091 123.599 933.135 127.146 933.011 132.415C932.815 140.715 926.956 141.673 921.106 143.657Z" fill="#A2C425"/>
<path d="M882.025 50.5531C881.974 50.9535 881.872 51.3627 881.811 51.564C880.209 52.7419 878.398 53.477 877.223 54.7839C876.499 55.5891 876.246 57.4503 876.641 58.5213C878.511 63.6023 880.779 68.5365 882.684 73.6058C883.369 75.4289 884.92 78.066 881.447 78.7979C878.697 79.3774 875.57 79.6567 874.346 76.0645C873.276 72.9245 872.927 69.4582 871.422 66.5724C870.155 64.1416 867.684 62.338 865.408 60.1897C860.674 58.0316 858.721 60.4148 858.233 64.2924C857.801 67.7294 858.018 71.2521 858.01 74.7371C858.003 77.5974 856.618 79.5337 853.822 78.7619C852.302 78.3426 850.213 76.1809 850.183 74.7663C849.908 61.9897 849.91 49.2017 850.207 36.4258C850.241 34.9516 852.485 32.3791 853.843 32.2841C859.756 31.8704 865.763 31.7604 871.657 32.3399C879.227 33.0842 885.205 39.9207 882.025 50.5531ZM870.89 49.1676C872.769 46.3993 873.323 43.212 870.287 41.4198C867.832 39.9707 864.516 39.9808 861.582 39.3436C860.875 43.3615 860.167 47.3794 859.459 51.3973C860.006 51.8691 860.553 52.3409 861.1 52.8127C864.156 51.7764 867.211 50.7401 870.89 49.1676Z" fill="#DE6E35"/>
<path d="M310.334 132.08C310.536 131.827 311.049 131.522 311.849 131.129C311.639 131.371 311.142 131.7 310.334 132.08Z" fill="#98BD25"/>
</g>
<defs>
<clipPath id="clip0_224_390">
<rect width="1179" height="375" fill="white"/>
</clipPath>
</defs>
</svg>
